<svg xmlns="http://www.w3.org/2000/svg" xmlns:xlink="http://www.w3.org/1999/xlink" width="523pt" height="120pt" viewBox="0.00 0.00 523.00 120.00">
<g id="graph0" class="graph" transform="scale(1 1) rotate(0) translate(4 116.39)">
<title>BoolNFA</title>
<polygon fill="white" stroke="none" points="-4,4 -4,-116.39 519.23,-116.39 519.23,4 -4,4"/>
<!-- start -->
<g id="node1" class="node">
<title>start</title>
<ellipse fill="black" stroke="black" cx="1.8" cy="-57.69" rx="1.8" ry="1.8"/>
</g>
<!-- q0 -->
<g id="node2" class="node">
<title>q0</title>
<ellipse fill="none" stroke="black" cx="61.29" cy="-57.69" rx="20.69" ry="20.69"/>
<text xml:space="preserve" text-anchor="middle" x="61.29" y="-53.49" font-family="Times,serif" font-size="14.00">q0</text>
</g>
<!-- start&#45;&gt;q0 -->
<g id="edge1" class="edge">
<title>start-&gt;q0</title>
<path fill="none" stroke="black" d="M3.8,-57.69C7.06,-57.69 17.87,-57.69 29.17,-57.69"/>
<polygon fill="black" stroke="black" points="28.86,-61.19 38.86,-57.69 28.86,-54.19 28.86,-61.19"/>
</g>
<!-- q1 -->
<g id="node5" class="node">
<title>q1</title>
<ellipse fill="none" stroke="black" cx="143.34" cy="-87.69" rx="20.69" ry="20.69"/>
<text xml:space="preserve" text-anchor="middle" x="143.34" y="-83.49" font-family="Times,serif" font-size="14.00">q1</text>
</g>
<!-- q0&#45;&gt;q1 -->
<g id="edge2" class="edge">
<title>q0-&gt;q1</title>
<path fill="none" stroke="black" d="M80.86,-64.65C90.39,-68.22 102.22,-72.66 112.96,-76.68"/>
<polygon fill="black" stroke="black" points="111.59,-79.91 122.18,-80.14 114.05,-73.35 111.59,-79.91"/>
<text xml:space="preserve" text-anchor="middle" x="102.32" y="-76.89" font-family="Times,serif" font-size="14.00">t</text>
</g>
<!-- q5 -->
<g id="node8" class="node">
<title>q5</title>
<ellipse fill="none" stroke="black" cx="143.34" cy="-28.69" rx="20.69" ry="20.69"/>
<text xml:space="preserve" text-anchor="middle" x="143.34" y="-24.49" font-family="Times,serif" font-size="14.00">q5</text>
</g>
<!-- q0&#45;&gt;q5 -->
<g id="edge6" class="edge">
<title>q0-&gt;q5</title>
<path fill="none" stroke="black" d="M81.07,-50.79C87.11,-48.58 93.83,-46.13 99.99,-43.89 104.04,-42.42 108.32,-40.88 112.54,-39.36"/>
<polygon fill="black" stroke="black" points="113.7,-42.66 121.93,-35.99 111.34,-36.07 113.7,-42.66"/>
<text xml:space="preserve" text-anchor="middle" x="102.32" y="-48.09" font-family="Times,serif" font-size="14.00">f</text>
</g>
<!-- q4 -->
<g id="node3" class="node">
<title>q4</title>
<ellipse fill="none" stroke="black" cx="398.93" cy="-87.69" rx="20.69" ry="20.69"/>
<ellipse fill="none" stroke="black" cx="398.93" cy="-87.69" rx="24.69" ry="24.69"/>
<text xml:space="preserve" text-anchor="middle" x="398.93" y="-83.49" font-family="Times,serif" font-size="14.00">q4</text>
</g>
<!-- q9 -->
<g id="node4" class="node">
<title>q9</title>
<ellipse fill="none" stroke="black" cx="490.53" cy="-24.69" rx="20.69" ry="20.69"/>
<ellipse fill="none" stroke="black" cx="490.53" cy="-24.69" rx="24.69" ry="24.69"/>
<text xml:space="preserve" text-anchor="middle" x="490.53" y="-20.49" font-family="Times,serif" font-size="14.00">q9</text>
</g>
<!-- q2 -->
<g id="node6" class="node">
<title>q2</title>
<ellipse fill="none" stroke="black" cx="226.94" cy="-87.69" rx="20.69" ry="20.69"/>
<text xml:space="preserve" text-anchor="middle" x="226.94" y="-83.49" font-family="Times,serif" font-size="14.00">q2</text>
</g>
<!-- q1&#45;&gt;q2 -->
<g id="edge3" class="edge">
<title>q1-&gt;q2</title>
<path fill="none" stroke="black" d="M164.51,-87.69C173.6,-87.69 184.55,-87.69 194.67,-87.69"/>
<polygon fill="black" stroke="black" points="194.49,-91.19 204.49,-87.69 194.49,-84.19 194.49,-91.19"/>
<text xml:space="preserve" text-anchor="middle" x="185.14" y="-91.89" font-family="Times,serif" font-size="14.00">r</text>
</g>
<!-- q3 -->
<g id="node7" class="node">
<title>q3</title>
<ellipse fill="none" stroke="black" cx="311.33" cy="-87.69" rx="20.69" ry="20.69"/>
<text xml:space="preserve" text-anchor="middle" x="311.33" y="-83.49" font-family="Times,serif" font-size="14.00">q3</text>
</g>
<!-- q2&#45;&gt;q3 -->
<g id="edge4" class="edge">
<title>q2-&gt;q3</title>
<path fill="none" stroke="black" d="M247.89,-87.69C257.23,-87.69 268.58,-87.69 279.03,-87.69"/>
<polygon fill="black" stroke="black" points="278.77,-91.19 288.77,-87.69 278.77,-84.19 278.77,-91.19"/>
<text xml:space="preserve" text-anchor="middle" x="269.14" y="-91.89" font-family="Times,serif" font-size="14.00">u</text>
</g>
<!-- q3&#45;&gt;q4 -->
<g id="edge5" class="edge">
<title>q3-&gt;q4</title>
<path fill="none" stroke="black" d="M332.18,-87.69C341.23,-87.69 352.21,-87.69 362.59,-87.69"/>
<polygon fill="black" stroke="black" points="362.4,-91.19 372.4,-87.69 362.4,-84.19 362.4,-91.19"/>
<text xml:space="preserve" text-anchor="middle" x="353.13" y="-91.89" font-family="Times,serif" font-size="14.00">e</text>
</g>
<!-- q6 -->
<g id="node9" class="node">
<title>q6</title>
<ellipse fill="none" stroke="black" cx="226.94" cy="-28.69" rx="20.69" ry="20.69"/>
<text xml:space="preserve" text-anchor="middle" x="226.94" y="-24.49" font-family="Times,serif" font-size="14.00">q6</text>
</g>
<!-- q5&#45;&gt;q6 -->
<g id="edge7" class="edge">
<title>q5-&gt;q6</title>
<path fill="none" stroke="black" d="M164.51,-28.69C173.6,-28.69 184.55,-28.69 194.67,-28.69"/>
<polygon fill="black" stroke="black" points="194.49,-32.19 204.49,-28.69 194.49,-25.19 194.49,-32.19"/>
<text xml:space="preserve" text-anchor="middle" x="185.14" y="-32.89" font-family="Times,serif" font-size="14.00">a</text>
</g>
<!-- q7 -->
<g id="node10" class="node">
<title>q7</title>
<ellipse fill="none" stroke="black" cx="311.33" cy="-27.69" rx="20.69" ry="20.69"/>
<text xml:space="preserve" text-anchor="middle" x="311.33" y="-23.49" font-family="Times,serif" font-size="14.00">q7</text>
</g>
<!-- q6&#45;&gt;q7 -->
<g id="edge8" class="edge">
<title>q6-&gt;q7</title>
<path fill="none" stroke="black" d="M247.89,-28.45C257.23,-28.34 268.58,-28.2 279.03,-28.07"/>
<polygon fill="black" stroke="black" points="278.81,-31.58 288.77,-27.96 278.73,-24.58 278.81,-31.58"/>
<text xml:space="preserve" text-anchor="middle" x="269.14" y="-32.42" font-family="Times,serif" font-size="14.00">l</text>
</g>
<!-- q8 -->
<g id="node11" class="node">
<title>q8</title>
<ellipse fill="none" stroke="black" cx="398.93" cy="-24.69" rx="20.69" ry="20.69"/>
<text xml:space="preserve" text-anchor="middle" x="398.93" y="-20.49" font-family="Times,serif" font-size="14.00">q8</text>
</g>
<!-- q7&#45;&gt;q8 -->
<g id="edge9" class="edge">
<title>q7-&gt;q8</title>
<path fill="none" stroke="black" d="M332.18,-27C342.37,-26.64 355.03,-26.2 366.51,-25.79"/>
<polygon fill="black" stroke="black" points="366.5,-29.3 376.38,-25.45 366.26,-22.3 366.5,-29.3"/>
<text xml:space="preserve" text-anchor="middle" x="353.13" y="-30.48" font-family="Times,serif" font-size="14.00">s</text>
</g>
<!-- q8&#45;&gt;q9 -->
<g id="edge10" class="edge">
<title>q8-&gt;q9</title>
<path fill="none" stroke="black" d="M419.82,-24.69C429.95,-24.69 442.57,-24.69 454.28,-24.69"/>
<polygon fill="black" stroke="black" points="454.05,-28.19 464.05,-24.69 454.05,-21.19 454.05,-28.19"/>
<text xml:space="preserve" text-anchor="middle" x="444.73" y="-28.89" font-family="Times,serif" font-size="14.00">e</text>
</g>
</g>
</svg>