<svg xmlns="http://www.w3.org/2000/svg" xmlns:xlink="http://www.w3.org/1999/xlink" width="1529pt" height="282pt" viewBox="0.00 0.00 1529.00 282.00">
<g id="graph0" class="graph" transform="scale(1 1) rotate(0) translate(4 278.39)">
<title>FloatDFA</title>
<polygon fill="white" stroke="none" points="-4,4 -4,-278.39 1524.93,-278.39 1524.93,4 -4,4"/>
<!-- start -->
<g id="node1" class="node">
<title>start</title>
<ellipse fill="black" stroke="black" cx="1.8" cy="-24.69" rx="1.8" ry="1.8"/>
</g>
<!-- q0 -->
<g id="node2" class="node">
<title>q0</title>
<ellipse fill="none" stroke="black" cx="61.29" cy="-24.69" rx="20.69" ry="20.69"/>
<text xml:space="preserve" text-anchor="middle" x="61.29" y="-20.49" font-family="Times,serif" font-size="14.00">q0</text>
</g>
<!-- start&#45;&gt;q0 -->
<g id="edge1" class="edge">
<title>start-&gt;q0</title>
<path fill="none" stroke="black" d="M3.8,-24.69C7.06,-24.69 17.87,-24.69 29.17,-24.69"/>
<polygon fill="black" stroke="black" points="28.86,-28.19 38.86,-24.69 28.86,-21.19 28.86,-28.19"/>
</g>
<!-- q1 -->
<g id="node10" class="node">
<title>q1</title>
<ellipse fill="none" stroke="black" cx="171.35" cy="-63.69" rx="20.69" ry="20.69"/>
<text xml:space="preserve" text-anchor="middle" x="171.35" y="-59.49" font-family="Times,serif" font-size="14.00">q1</text>
</g>
<!-- q0&#45;&gt;q1 -->
<g id="edge2" class="edge">
<title>q0-&gt;q1</title>
<path fill="none" stroke="black" d="M81.12,-31.49C97.52,-37.41 121.58,-46.09 140.59,-52.95"/>
<polygon fill="black" stroke="black" points="139.36,-56.23 149.96,-56.33 141.74,-49.65 139.36,-56.23"/>
<text xml:space="preserve" text-anchor="middle" x="116.32" y="-54.17" font-family="Times,serif" font-size="14.00">SIGN</text>
</g>
<!-- q2 -->
<g id="node11" class="node">
<title>q2</title>
<ellipse fill="none" stroke="black" cx="286.83" cy="-24.69" rx="20.69" ry="20.69"/>
<text xml:space="preserve" text-anchor="middle" x="286.83" y="-20.49" font-family="Times,serif" font-size="14.00">q2</text>
</g>
<!-- q0&#45;&gt;q2 -->
<g id="edge3" class="edge">
<title>q0-&gt;q2</title>
<path fill="none" stroke="black" d="M82.26,-22.43C100.15,-20.51 127.12,-17.93 150.66,-16.89 186.46,-15.32 227.55,-18.38 254.94,-21.12"/>
<polygon fill="black" stroke="black" points="254.32,-24.58 264.64,-22.14 255.06,-17.62 254.32,-24.58"/>
<text xml:space="preserve" text-anchor="middle" x="171.35" y="-21.09" font-family="Times,serif" font-size="14.00">DIGIT</text>
</g>
<!-- q4 -->
<g id="node3" class="node">
<title>q4</title>
<ellipse fill="none" stroke="black" cx="512.48" cy="-24.69" rx="20.69" ry="20.69"/>
<ellipse fill="none" stroke="black" cx="512.48" cy="-24.69" rx="24.69" ry="24.69"/>
<text xml:space="preserve" text-anchor="middle" x="512.48" y="-20.49" font-family="Times,serif" font-size="14.00">q4</text>
</g>
<!-- q5 -->
<g id="node4" class="node">
<title>q5</title>
<ellipse fill="none" stroke="black" cx="635.96" cy="-61.69" rx="20.69" ry="20.69"/>
<ellipse fill="none" stroke="black" cx="635.96" cy="-61.69" rx="24.69" ry="24.69"/>
<text xml:space="preserve" text-anchor="middle" x="635.96" y="-57.49" font-family="Times,serif" font-size="14.00">q5</text>
</g>
<!-- q4&#45;&gt;q5 -->
<g id="edge8" class="edge">
<title>q4-&gt;q5</title>
<path fill="none" stroke="black" d="M536.61,-31.74C554.85,-37.29 580.55,-45.12 601.1,-51.38"/>
<polygon fill="black" stroke="black" points="599.88,-54.67 610.46,-54.23 601.92,-47.97 599.88,-54.67"/>
<text xml:space="preserve" text-anchor="middle" x="574.22" y="-52.87" font-family="Times,serif" font-size="14.00">DIGIT</text>
</g>
<!-- q10 -->
<g id="node13" class="node">
<title>q10</title>
<ellipse fill="none" stroke="black" cx="1242.56" cy="-121.69" rx="25.52" ry="25.52"/>
<text xml:space="preserve" text-anchor="middle" x="1242.56" y="-117.49" font-family="Times,serif" font-size="14.00">q10</text>
</g>
<!-- q4&#45;&gt;q10 -->
<g id="edge13" class="edge">
<title>q4-&gt;q10</title>
<path fill="none" stroke="black" d="M537.1,-19.72C561.49,-15.02 600.71,-8.69 634.96,-8.69 634.96,-8.69 634.96,-8.69 1130.89,-8.69 1175.93,-8.69 1208.69,-55.09 1226.41,-88.42"/>
<polygon fill="black" stroke="black" points="1223.09,-89.6 1230.74,-96.93 1229.33,-86.43 1223.09,-89.6"/>
<text xml:space="preserve" text-anchor="middle" x="882.93" y="-12.89" font-family="Times,serif" font-size="14.00">EXP</text>
</g>
<!-- q6 -->
<g id="node5" class="node">
<title>q6</title>
<ellipse fill="none" stroke="black" cx="759.44" cy="-106.69" rx="20.69" ry="20.69"/>
<ellipse fill="none" stroke="black" cx="759.44" cy="-106.69" rx="24.69" ry="24.69"/>
<text xml:space="preserve" text-anchor="middle" x="759.44" y="-102.49" font-family="Times,serif" font-size="14.00">q6</text>
</g>
<!-- q5&#45;&gt;q6 -->
<g id="edge9" class="edge">
<title>q5-&gt;q6</title>
<path fill="none" stroke="black" d="M659.52,-70.05C678.02,-76.9 704.46,-86.7 725.35,-94.44"/>
<polygon fill="black" stroke="black" points="723.99,-97.66 734.58,-97.85 726.42,-91.1 723.99,-97.66"/>
<text xml:space="preserve" text-anchor="middle" x="697.7" y="-95.05" font-family="Times,serif" font-size="14.00">DIGIT</text>
</g>
<!-- q5&#45;&gt;q10 -->
<g id="edge14" class="edge">
<title>q5-&gt;q10</title>
<path fill="none" stroke="black" d="M660.67,-59.21C685.14,-56.86 724.41,-53.69 758.44,-53.69 758.44,-53.69 758.44,-53.69 1130.89,-53.69 1164.04,-53.69 1195.61,-76.11 1216.48,-95.21"/>
<polygon fill="black" stroke="black" points="1214.01,-97.68 1223.65,-102.07 1218.85,-92.62 1214.01,-97.68"/>
<text xml:space="preserve" text-anchor="middle" x="944.67" y="-57.89" font-family="Times,serif" font-size="14.00">EXP</text>
</g>
<!-- q7 -->
<g id="node6" class="node">
<title>q7</title>
<ellipse fill="none" stroke="black" cx="882.93" cy="-152.69" rx="20.69" ry="20.69"/>
<ellipse fill="none" stroke="black" cx="882.93" cy="-152.69" rx="24.69" ry="24.69"/>
<text xml:space="preserve" text-anchor="middle" x="882.93" y="-148.49" font-family="Times,serif" font-size="14.00">q7</text>
</g>
<!-- q6&#45;&gt;q7 -->
<g id="edge10" class="edge">
<title>q6-&gt;q7</title>
<path fill="none" stroke="black" d="M783.01,-115.24C801.5,-122.24 827.94,-132.25 848.83,-140.16"/>
<polygon fill="black" stroke="black" points="847.48,-143.39 858.07,-143.66 849.95,-136.84 847.48,-143.39"/>
<text xml:space="preserve" text-anchor="middle" x="821.18" y="-140.7" font-family="Times,serif" font-size="14.00">DIGIT</text>
</g>
<!-- q6&#45;&gt;q10 -->
<g id="edge15" class="edge">
<title>q6-&gt;q10</title>
<path fill="none" stroke="black" d="M784.16,-104.52C808.63,-102.46 847.91,-99.69 881.93,-99.69 881.93,-99.69 881.93,-99.69 1130.89,-99.69 1156.8,-99.69 1185.47,-105.56 1207.13,-111.24"/>
<polygon fill="black" stroke="black" points="1206.05,-114.57 1216.62,-113.84 1207.9,-107.82 1206.05,-114.57"/>
<text xml:space="preserve" text-anchor="middle" x="1006.41" y="-103.89" font-family="Times,serif" font-size="14.00">EXP</text>
</g>
<!-- q8 -->
<g id="node7" class="node">
<title>q8</title>
<ellipse fill="none" stroke="black" cx="1006.41" cy="-197.69" rx="20.69" ry="20.69"/>
<ellipse fill="none" stroke="black" cx="1006.41" cy="-197.69" rx="24.69" ry="24.69"/>
<text xml:space="preserve" text-anchor="middle" x="1006.41" y="-193.49" font-family="Times,serif" font-size="14.00">q8</text>
</g>
<!-- q7&#45;&gt;q8 -->
<g id="edge11" class="edge">
<title>q7-&gt;q8</title>
<path fill="none" stroke="black" d="M906.49,-161.05C924.99,-167.9 951.43,-177.7 972.32,-185.44"/>
<polygon fill="black" stroke="black" points="970.95,-188.66 981.55,-188.85 973.38,-182.1 970.95,-188.66"/>
<text xml:space="preserve" text-anchor="middle" x="944.67" y="-186.05" font-family="Times,serif" font-size="14.00">DIGIT</text>
</g>
<!-- q7&#45;&gt;q10 -->
<g id="edge16" class="edge">
<title>q7-&gt;q10</title>
<path fill="none" stroke="black" d="M907.95,-150.61C969.37,-145.29 1132.42,-131.15 1205.38,-124.83"/>
<polygon fill="black" stroke="black" points="1205.53,-128.33 1215.19,-123.98 1204.92,-121.36 1205.53,-128.33"/>
<text xml:space="preserve" text-anchor="middle" x="1068.15" y="-142.47" font-family="Times,serif" font-size="14.00">EXP</text>
</g>
<!-- q9 -->
<g id="node8" class="node">
<title>q9</title>
<ellipse fill="none" stroke="black" cx="1129.89" cy="-249.69" rx="20.69" ry="20.69"/>
<ellipse fill="none" stroke="black" cx="1129.89" cy="-249.69" rx="24.69" ry="24.69"/>
<text xml:space="preserve" text-anchor="middle" x="1129.89" y="-245.49" font-family="Times,serif" font-size="14.00">q9</text>
</g>
<!-- q8&#45;&gt;q9 -->
<g id="edge12" class="edge">
<title>q8-&gt;q9</title>
<path fill="none" stroke="black" d="M1029.69,-207.23C1048.36,-215.22 1075.26,-226.73 1096.33,-235.76"/>
<polygon fill="black" stroke="black" points="1094.79,-238.9 1105.36,-239.62 1097.55,-232.47 1094.79,-238.9"/>
<text xml:space="preserve" text-anchor="middle" x="1068.15" y="-235.59" font-family="Times,serif" font-size="14.00">DIGIT</text>
</g>
<!-- q8&#45;&gt;q10 -->
<g id="edge17" class="edge">
<title>q8-&gt;q10</title>
<path fill="none" stroke="black" d="M1031.37,-196.71C1068.94,-194.35 1143.17,-186.26 1199.04,-158.69 1204.99,-155.75 1210.78,-151.77 1216.07,-147.5"/>
<polygon fill="black" stroke="black" points="1218.08,-150.4 1223.31,-141.18 1213.48,-145.13 1218.08,-150.4"/>
<text xml:space="preserve" text-anchor="middle" x="1129.89" y="-191.75" font-family="Times,serif" font-size="14.00">EXP</text>
</g>
<!-- q9&#45;&gt;q10 -->
<g id="edge18" class="edge">
<title>q9-&gt;q10</title>
<path fill="none" stroke="black" d="M1152.66,-239.11C1167.2,-231.21 1185.98,-219.27 1199.04,-204.69 1211.58,-190.68 1221.5,-172.29 1228.59,-156.38"/>
<polygon fill="black" stroke="black" points="1231.78,-157.82 1232.45,-147.24 1225.34,-155.09 1231.78,-157.82"/>
<text xml:space="preserve" text-anchor="middle" x="1185.81" y="-230.54" font-family="Times,serif" font-size="14.00">EXP</text>
</g>
<!-- q12 -->
<g id="node9" class="node">
<title>q12</title>
<ellipse fill="none" stroke="black" cx="1491.41" cy="-121.69" rx="25.52" ry="25.52"/>
<ellipse fill="none" stroke="black" cx="1491.41" cy="-121.69" rx="29.52" ry="29.52"/>
<text xml:space="preserve" text-anchor="middle" x="1491.41" y="-117.49" font-family="Times,serif" font-size="14.00">q12</text>
</g>
<!-- q12&#45;&gt;q12 -->
<g id="edge22" class="edge">
<title>q12-&gt;q12</title>
<path fill="none" stroke="black" d="M1479.04,-148.56C1478.19,-159.74 1482.31,-169.22 1491.41,-169.22 1497.1,-169.22 1500.84,-165.51 1502.64,-160.01"/>
<polygon fill="black" stroke="black" points="1506.12,-160.37 1503.63,-150.07 1499.16,-159.67 1506.12,-160.37"/>
<text xml:space="preserve" text-anchor="middle" x="1491.41" y="-173.42" font-family="Times,serif" font-size="14.00">DIGIT</text>
</g>
<!-- q1&#45;&gt;q2 -->
<g id="edge4" class="edge">
<title>q1-&gt;q2</title>
<path fill="none" stroke="black" d="M191.34,-57.17C209.02,-51.09 235.64,-41.94 256.12,-34.9"/>
<polygon fill="black" stroke="black" points="257.03,-38.29 265.34,-31.73 254.75,-31.67 257.03,-38.29"/>
<text xml:space="preserve" text-anchor="middle" x="229.09" y="-54.17" font-family="Times,serif" font-size="14.00">DIGIT</text>
</g>
<!-- q2&#45;&gt;q2 -->
<g id="edge5" class="edge">
<title>q2-&gt;q2</title>
<path fill="none" stroke="black" d="M277.36,-43.41C275.59,-53.81 278.75,-63.39 286.83,-63.39 291.76,-63.39 294.86,-59.83 296.13,-54.7"/>
<polygon fill="black" stroke="black" points="299.62,-54.97 296.28,-44.92 292.62,-54.86 299.62,-54.97"/>
<text xml:space="preserve" text-anchor="middle" x="286.83" y="-67.59" font-family="Times,serif" font-size="14.00">DIGIT</text>
</g>
<!-- q3 -->
<g id="node12" class="node">
<title>q3</title>
<ellipse fill="none" stroke="black" cx="392.99" cy="-24.69" rx="20.69" ry="20.69"/>
<text xml:space="preserve" text-anchor="middle" x="392.99" y="-20.49" font-family="Times,serif" font-size="14.00">q3</text>
</g>
<!-- q2&#45;&gt;q3 -->
<g id="edge6" class="edge">
<title>q2-&gt;q3</title>
<path fill="none" stroke="black" d="M307.92,-24.69C322.9,-24.69 343.66,-24.69 360.8,-24.69"/>
<polygon fill="black" stroke="black" points="360.46,-28.19 370.46,-24.69 360.46,-21.19 360.46,-28.19"/>
<text xml:space="preserve" text-anchor="middle" x="339.91" y="-28.89" font-family="Times,serif" font-size="14.00">DOT</text>
</g>
<!-- q3&#45;&gt;q4 -->
<g id="edge7" class="edge">
<title>q3-&gt;q4</title>
<path fill="none" stroke="black" d="M413.92,-24.69C430.89,-24.69 455.67,-24.69 476.01,-24.69"/>
<polygon fill="black" stroke="black" points="475.87,-28.19 485.87,-24.69 475.87,-21.19 475.87,-28.19"/>
<text xml:space="preserve" text-anchor="middle" x="450.73" y="-28.89" font-family="Times,serif" font-size="14.00">DIGIT</text>
</g>
<!-- q10&#45;&gt;q12 -->
<g id="edge20" class="edge">
<title>q10-&gt;q12</title>
<path fill="none" stroke="black" d="M1267.7,-127.71C1273.67,-128.95 1280.08,-130.07 1286.08,-130.69 1355.84,-137.99 1374.07,-137.38 1443.89,-130.69 1446.35,-130.46 1448.88,-130.15 1451.42,-129.8"/>
<polygon fill="black" stroke="black" points="1451.69,-133.3 1461,-128.24 1450.56,-126.39 1451.69,-133.3"/>
<text xml:space="preserve" text-anchor="middle" x="1362.27" y="-140.14" font-family="Times,serif" font-size="14.00">DIGIT</text>
</g>
<!-- q11 -->
<g id="node14" class="node">
<title>q11</title>
<ellipse fill="none" stroke="black" cx="1362.27" cy="-90.69" rx="25.52" ry="25.52"/>
<text xml:space="preserve" text-anchor="middle" x="1362.27" y="-86.49" font-family="Times,serif" font-size="14.00">q11</text>
</g>
<!-- q10&#45;&gt;q11 -->
<g id="edge19" class="edge">
<title>q10-&gt;q11</title>
<path fill="none" stroke="black" d="M1267.66,-115.35C1284.56,-110.89 1307.42,-104.87 1326.32,-99.9"/>
<polygon fill="black" stroke="black" points="1326.95,-103.35 1335.73,-97.42 1325.17,-96.58 1326.95,-103.35"/>
<text xml:space="preserve" text-anchor="middle" x="1302.41" y="-114.08" font-family="Times,serif" font-size="14.00">SIGN</text>
</g>
<!-- q11&#45;&gt;q12 -->
<g id="edge21" class="edge">
<title>q11-&gt;q12</title>
<path fill="none" stroke="black" d="M1387.48,-96.6C1405.48,-100.98 1430.41,-107.06 1451.23,-112.14"/>
<polygon fill="black" stroke="black" points="1450.28,-115.51 1460.83,-114.48 1451.94,-108.71 1450.28,-115.51"/>
<text xml:space="preserve" text-anchor="middle" x="1424.84" y="-114.08" font-family="Times,serif" font-size="14.00">DIGIT</text>
</g>
</g>
</svg>