<svg xmlns="http://www.w3.org/2000/svg" xmlns:xlink="http://www.w3.org/1999/xlink" width="4458pt" height="1398pt" viewBox="0.00 0.00 4458.00 1398.00">
<g id="graph0" class="graph" transform="scale(1 1) rotate(0) translate(4 1394.23)">
<title>IdentDFA</title>
<polygon fill="white" stroke="none" points="-4,4 -4,-1394.23 4454.4,-1394.23 4454.4,4 -4,4"/>
<!-- start -->
<g id="node1" class="node">
<title>start</title>
<ellipse fill="black" stroke="black" cx="1.8" cy="-18.55" rx="1.8" ry="1.8"/>
</g>
<!-- i0 -->
<g id="node2" class="node">
<title>i0</title>
<ellipse fill="none" stroke="black" cx="59.15" cy="-18.55" rx="18.55" ry="18.55"/>
<text xml:space="preserve" text-anchor="middle" x="59.15" y="-14.35" font-family="Times,serif" font-size="14.00">i0</text>
</g>
<!-- start&#45;&gt;i0 -->
<g id="edge1" class="edge">
<title>start-&gt;i0</title>
<path fill="none" stroke="black" d="M3.76,-18.55C6.96,-18.55 17.66,-18.55 28.73,-18.55"/>
<polygon fill="black" stroke="black" points="28.6,-22.05 38.6,-18.55 28.6,-15.05 28.6,-22.05"/>
</g>
<!-- i1 -->
<g id="node3" class="node">
<title>i1</title>
<ellipse fill="none" stroke="black" cx="179.82" cy="-53.55" rx="18.55" ry="18.55"/>
<ellipse fill="none" stroke="black" cx="179.82" cy="-53.55" rx="22.55" ry="22.55"/>
<text xml:space="preserve" text-anchor="middle" x="179.82" y="-49.35" font-family="Times,serif" font-size="14.00">i1</text>
</g>
<!-- i0&#45;&gt;i1 -->
<g id="edge2" class="edge">
<title>i0-&gt;i1</title>
<path fill="none" stroke="black" d="M77.4,-23.64C95.58,-29 124.6,-37.56 146.95,-44.15"/>
<polygon fill="black" stroke="black" points="145.91,-47.49 156.49,-46.96 147.89,-40.78 145.91,-47.49"/>
<text xml:space="preserve" text-anchor="middle" x="117.48" y="-45.43" font-family="Times,serif" font-size="14.00">UPPER</text>
</g>
<!-- id -->
<g id="node34" class="node">
<title>id</title>
<ellipse fill="none" stroke="black" cx="4431.85" cy="-666.55" rx="18.55" ry="18.55"/>
<text xml:space="preserve" text-anchor="middle" x="4431.85" y="-662.35" font-family="Times,serif" font-size="14.00">id</text>
</g>
<!-- i0&#45;&gt;id -->
<g id="edge3" class="edge">
<title>i0-&gt;id</title>
<path fill="none" stroke="black" d="M77.74,-14.67C100.82,-9.94 142.64,-2.55 178.82,-2.55 178.82,-2.55 178.82,-2.55 4300.76,-2.55 4347.88,-2.55 4369.5,-11.11 4395.3,-50.55 4427.55,-99.84 4430.63,-519.22 4430.85,-636.3"/>
<polygon fill="black" stroke="black" points="4427.35,-636.06 4430.86,-646.05 4434.35,-636.05 4427.35,-636.06"/>
<text xml:space="preserve" text-anchor="middle" x="2144.55" y="-6.75" font-family="Times,serif" font-size="14.00">BODY/OTHER</text>
</g>
<!-- i2 -->
<g id="node4" class="node">
<title>i2</title>
<ellipse fill="none" stroke="black" cx="300.58" cy="-99.55" rx="18.55" ry="18.55"/>
<ellipse fill="none" stroke="black" cx="300.58" cy="-99.55" rx="22.55" ry="22.55"/>
<text xml:space="preserve" text-anchor="middle" x="300.58" y="-95.35" font-family="Times,serif" font-size="14.00">i2</text>
</g>
<!-- i1&#45;&gt;i2 -->
<g id="edge4" class="edge">
<title>i1-&gt;i2</title>
<path fill="none" stroke="black" d="M201.23,-61.46C219.76,-68.63 247.34,-79.31 268.58,-87.54"/>
<polygon fill="black" stroke="black" points="267.03,-90.69 277.62,-91.04 269.56,-84.17 267.03,-90.69"/>
<text xml:space="preserve" text-anchor="middle" x="240.2" y="-87.56" font-family="Times,serif" font-size="14.00">BODY</text>
</g>
<!-- i1&#45;&gt;id -->
<g id="edge35" class="edge">
<title>i1-&gt;id</title>
<path fill="none" stroke="black" d="M202.69,-52.07C226.51,-50.6 265.74,-48.55 299.58,-48.55 299.58,-48.55 299.58,-48.55 4300.76,-48.55 4347.69,-48.55 4369.36,-56.45 4395.3,-95.55 4425.31,-140.77 4429.99,-524.96 4430.72,-636.38"/>
<polygon fill="black" stroke="black" points="4427.22,-636.23 4430.77,-646.21 4434.22,-636.19 4427.22,-636.23"/>
<text xml:space="preserve" text-anchor="middle" x="2235.03" y="-52.75" font-family="Times,serif" font-size="14.00">OTHER</text>
</g>
<!-- i3 -->
<g id="node5" class="node">
<title>i3</title>
<ellipse fill="none" stroke="black" cx="421.35" cy="-144.55" rx="18.55" ry="18.55"/>
<ellipse fill="none" stroke="black" cx="421.35" cy="-144.55" rx="22.55" ry="22.55"/>
<text xml:space="preserve" text-anchor="middle" x="421.35" y="-140.35" font-family="Times,serif" font-size="14.00">i3</text>
</g>
<!-- i2&#45;&gt;i3 -->
<g id="edge5" class="edge">
<title>i2-&gt;i3</title>
<path fill="none" stroke="black" d="M322,-107.28C340.44,-114.27 367.85,-124.66 389.06,-132.69"/>
<polygon fill="black" stroke="black" points="387.79,-135.96 398.38,-136.23 390.27,-129.41 387.79,-135.96"/>
<text xml:space="preserve" text-anchor="middle" x="360.96" y="-132.91" font-family="Times,serif" font-size="14.00">BODY</text>
</g>
<!-- i2&#45;&gt;id -->
<g id="edge36" class="edge">
<title>i2-&gt;id</title>
<path fill="none" stroke="black" d="M323.45,-97.78C347.27,-96.01 386.49,-93.55 420.35,-93.55 420.35,-93.55 420.35,-93.55 4300.76,-93.55 4347.88,-93.55 4369.31,-102.24 4395.3,-141.55 4422.63,-182.87 4429.17,-531.08 4430.53,-636.46"/>
<polygon fill="black" stroke="black" points="4427.03,-636.33 4430.65,-646.28 4434.03,-636.24 4427.03,-636.33"/>
<text xml:space="preserve" text-anchor="middle" x="2303.74" y="-97.75" font-family="Times,serif" font-size="14.00">OTHER</text>
</g>
<!-- i4 -->
<g id="node6" class="node">
<title>i4</title>
<ellipse fill="none" stroke="black" cx="542.11" cy="-190.55" rx="18.55" ry="18.55"/>
<ellipse fill="none" stroke="black" cx="542.11" cy="-190.55" rx="22.55" ry="22.55"/>
<text xml:space="preserve" text-anchor="middle" x="542.11" y="-186.35" font-family="Times,serif" font-size="14.00">i4</text>
</g>
<!-- i3&#45;&gt;i4 -->
<g id="edge6" class="edge">
<title>i3-&gt;i4</title>
<path fill="none" stroke="black" d="M442.76,-152.46C461.29,-159.63 488.87,-170.31 510.11,-178.54"/>
<polygon fill="black" stroke="black" points="508.56,-181.69 519.15,-182.04 511.09,-175.17 508.56,-181.69"/>
<text xml:space="preserve" text-anchor="middle" x="481.73" y="-178.56" font-family="Times,serif" font-size="14.00">BODY</text>
</g>
<!-- i3&#45;&gt;id -->
<g id="edge37" class="edge">
<title>i3-&gt;id</title>
<path fill="none" stroke="black" d="M444.22,-143.07C468.04,-141.6 507.27,-139.55 541.11,-139.55 541.11,-139.55 541.11,-139.55 4300.76,-139.55 4347.11,-139.55 4368.97,-145.41 4395.3,-183.55 4420.99,-220.74 4428.6,-536.23 4430.38,-636.25"/>
<polygon fill="black" stroke="black" points="4426.88,-636.16 4430.55,-646.1 4433.88,-636.04 4426.88,-636.16"/>
<text xml:space="preserve" text-anchor="middle" x="2372.45" y="-143.75" font-family="Times,serif" font-size="14.00">OTHER</text>
</g>
<!-- i5 -->
<g id="node7" class="node">
<title>i5</title>
<ellipse fill="none" stroke="black" cx="662.88" cy="-235.55" rx="18.55" ry="18.55"/>
<ellipse fill="none" stroke="black" cx="662.88" cy="-235.55" rx="22.55" ry="22.55"/>
<text xml:space="preserve" text-anchor="middle" x="662.88" y="-231.35" font-family="Times,serif" font-size="14.00">i5</text>
</g>
<!-- i4&#45;&gt;i5 -->
<g id="edge7" class="edge">
<title>i4-&gt;i5</title>
<path fill="none" stroke="black" d="M563.53,-198.28C581.97,-205.27 609.38,-215.66 630.59,-223.69"/>
<polygon fill="black" stroke="black" points="629.32,-226.96 639.91,-227.23 631.8,-220.41 629.32,-226.96"/>
<text xml:space="preserve" text-anchor="middle" x="602.49" y="-223.91" font-family="Times,serif" font-size="14.00">BODY</text>
</g>
<!-- i4&#45;&gt;id -->
<g id="edge38" class="edge">
<title>i4-&gt;id</title>
<path fill="none" stroke="black" d="M564.98,-188.78C588.8,-187.01 628.02,-184.55 661.88,-184.55 661.88,-184.55 661.88,-184.55 2304.74,-184.55 2426.01,-184.55 2456.3,-180.55 2577.57,-180.55 2577.57,-180.55 2577.57,-180.55 4300.76,-180.55 4347.69,-180.55 4369,-188.69 4395.3,-227.55 4418.12,-261.26 4427.57,-542.62 4430.11,-636.33"/>
<polygon fill="black" stroke="black" points="4426.61,-636.35 4430.37,-646.26 4433.61,-636.17 4426.61,-636.35"/>
<text xml:space="preserve" text-anchor="middle" x="2441.16" y="-187.34" font-family="Times,serif" font-size="14.00">OTHER</text>
</g>
<!-- i6 -->
<g id="node8" class="node">
<title>i6</title>
<ellipse fill="none" stroke="black" cx="783.64" cy="-277.55" rx="18.55" ry="18.55"/>
<ellipse fill="none" stroke="black" cx="783.64" cy="-277.55" rx="22.55" ry="22.55"/>
<text xml:space="preserve" text-anchor="middle" x="783.64" y="-273.35" font-family="Times,serif" font-size="14.00">i6</text>
</g>
<!-- i5&#45;&gt;i6 -->
<g id="edge8" class="edge">
<title>i5-&gt;i6</title>
<path fill="none" stroke="black" d="M684.56,-242.86C703.04,-249.4 730.37,-259.06 751.49,-266.53"/>
<polygon fill="black" stroke="black" points="750.17,-269.78 760.76,-269.81 752.5,-263.18 750.17,-269.78"/>
<text xml:space="preserve" text-anchor="middle" x="723.26" y="-266.96" font-family="Times,serif" font-size="14.00">BODY</text>
</g>
<!-- i5&#45;&gt;id -->
<g id="edge39" class="edge">
<title>i5-&gt;id</title>
<path fill="none" stroke="black" d="M685.73,-232.9C709.53,-230.24 748.73,-226.55 782.64,-226.55 782.64,-226.55 782.64,-226.55 4300.76,-226.55 4346.56,-226.55 4368.5,-230.41 4395.3,-267.55 4416.76,-297.27 4426.98,-548.66 4429.92,-636.45"/>
<polygon fill="black" stroke="black" points="4426.42,-636.31 4430.24,-646.19 4433.41,-636.08 4426.42,-636.31"/>
<text xml:space="preserve" text-anchor="middle" x="2509.86" y="-230.75" font-family="Times,serif" font-size="14.00">OTHER</text>
</g>
<!-- i7 -->
<g id="node9" class="node">
<title>i7</title>
<ellipse fill="none" stroke="black" cx="904.41" cy="-322.55" rx="18.55" ry="18.55"/>
<ellipse fill="none" stroke="black" cx="904.41" cy="-322.55" rx="22.55" ry="22.55"/>
<text xml:space="preserve" text-anchor="middle" x="904.41" y="-318.35" font-family="Times,serif" font-size="14.00">i7</text>
</g>
<!-- i6&#45;&gt;i7 -->
<g id="edge9" class="edge">
<title>i6-&gt;i7</title>
<path fill="none" stroke="black" d="M805.06,-285.28C823.5,-292.27 850.91,-302.66 872.12,-310.69"/>
<polygon fill="black" stroke="black" points="870.85,-313.96 881.44,-314.23 873.33,-307.41 870.85,-313.96"/>
<text xml:space="preserve" text-anchor="middle" x="844.02" y="-310.91" font-family="Times,serif" font-size="14.00">BODY</text>
</g>
<!-- i6&#45;&gt;id -->
<g id="edge40" class="edge">
<title>i6-&gt;id</title>
<path fill="none" stroke="black" d="M806.51,-275.78C830.33,-274.01 869.55,-271.55 903.41,-271.55 903.41,-271.55 903.41,-271.55 2442.16,-271.55 2563.45,-271.55 2593.69,-264.55 2714.99,-264.55 2714.99,-264.55 2714.99,-264.55 4300.76,-264.55 4347.69,-264.55 4368.63,-272.94 4395.3,-311.55 4431.48,-363.91 4432.48,-560.97 4431.47,-636.67"/>
<polygon fill="black" stroke="black" points="4427.98,-636.17 4431.32,-646.23 4434.98,-636.28 4427.98,-636.17"/>
<text xml:space="preserve" text-anchor="middle" x="2578.57" y="-273.28" font-family="Times,serif" font-size="14.00">OTHER</text>
</g>
<!-- i8 -->
<g id="node10" class="node">
<title>i8</title>
<ellipse fill="none" stroke="black" cx="1025.17" cy="-361.55" rx="18.55" ry="18.55"/>
<ellipse fill="none" stroke="black" cx="1025.17" cy="-361.55" rx="22.55" ry="22.55"/>
<text xml:space="preserve" text-anchor="middle" x="1025.17" y="-357.35" font-family="Times,serif" font-size="14.00">i8</text>
</g>
<!-- i7&#45;&gt;i8 -->
<g id="edge10" class="edge">
<title>i7-&gt;i8</title>
<path fill="none" stroke="black" d="M926.37,-329.43C944.68,-335.45 971.55,-344.27 992.49,-351.14"/>
<polygon fill="black" stroke="black" points="991.39,-354.47 1001.98,-354.26 993.57,-347.82 991.39,-354.47"/>
<text xml:space="preserve" text-anchor="middle" x="964.79" y="-352.02" font-family="Times,serif" font-size="14.00">BODY</text>
</g>
<!-- i7&#45;&gt;id -->
<g id="edge41" class="edge">
<title>i7-&gt;id</title>
<path fill="none" stroke="black" d="M926.8,-319.08C950.52,-315.53 989.98,-310.55 1024.17,-310.55 1024.17,-310.55 1024.17,-310.55 4300.76,-310.55 4346.56,-310.55 4368.06,-314.73 4395.3,-351.55 4428.34,-396.21 4431.38,-566.32 4431.19,-636.25"/>
<polygon fill="black" stroke="black" points="4427.69,-636.18 4431.13,-646.2 4434.69,-636.22 4427.69,-636.18"/>
<text xml:space="preserve" text-anchor="middle" x="2647.28" y="-314.75" font-family="Times,serif" font-size="14.00">OTHER</text>
</g>
<!-- i9 -->
<g id="node11" class="node">
<title>i9</title>
<ellipse fill="none" stroke="black" cx="1145.94" cy="-406.55" rx="18.55" ry="18.55"/>
<ellipse fill="none" stroke="black" cx="1145.94" cy="-406.55" rx="22.55" ry="22.55"/>
<text xml:space="preserve" text-anchor="middle" x="1145.94" y="-402.35" font-family="Times,serif" font-size="14.00">i9</text>
</g>
<!-- i8&#45;&gt;i9 -->
<g id="edge11" class="edge">
<title>i8-&gt;i9</title>
<path fill="none" stroke="black" d="M1046.59,-369.28C1065.03,-376.27 1092.44,-386.66 1113.65,-394.69"/>
<polygon fill="black" stroke="black" points="1112.38,-397.96 1122.97,-398.23 1114.86,-391.41 1112.38,-397.96"/>
<text xml:space="preserve" text-anchor="middle" x="1085.55" y="-394.91" font-family="Times,serif" font-size="14.00">BODY</text>
</g>
<!-- i8&#45;&gt;id -->
<g id="edge42" class="edge">
<title>i8-&gt;id</title>
<path fill="none" stroke="black" d="M1048.04,-359.78C1071.86,-358.01 1111.08,-355.55 1144.94,-355.55 1144.94,-355.55 1144.94,-355.55 2579.57,-355.55 2700.87,-355.55 2731.1,-348.55 2852.4,-348.55 2852.4,-348.55 2852.4,-348.55 4300.76,-348.55 4347.49,-348.55 4368,-356.62 4395.3,-394.55 4422.76,-432.68 4429.01,-573.66 4430.43,-636.26"/>
<polygon fill="black" stroke="black" points="4426.93,-636.24 4430.63,-646.17 4433.93,-636.1 4426.93,-636.24"/>
<text xml:space="preserve" text-anchor="middle" x="2715.99" y="-357.28" font-family="Times,serif" font-size="14.00">OTHER</text>
</g>
<!-- i10 -->
<g id="node12" class="node">
<title>i10</title>
<ellipse fill="none" stroke="black" cx="1271.53" cy="-449.55" rx="23.38" ry="23.38"/>
<ellipse fill="none" stroke="black" cx="1271.53" cy="-449.55" rx="27.38" ry="27.38"/>
<text xml:space="preserve" text-anchor="middle" x="1271.53" y="-445.35" font-family="Times,serif" font-size="14.00">i10</text>
</g>
<!-- i9&#45;&gt;i10 -->
<g id="edge12" class="edge">
<title>i9-&gt;i10</title>
<path fill="none" stroke="black" d="M1167.62,-413.75C1185.88,-420.1 1212.9,-429.5 1234.67,-437.07"/>
<polygon fill="black" stroke="black" points="1233.48,-440.36 1244.07,-440.34 1235.78,-433.75 1233.48,-440.36"/>
<text xml:space="preserve" text-anchor="middle" x="1206.32" y="-437.36" font-family="Times,serif" font-size="14.00">BODY</text>
</g>
<!-- i9&#45;&gt;id -->
<g id="edge43" class="edge">
<title>i9-&gt;id</title>
<path fill="none" stroke="black" d="M1168.31,-403.21C1192.9,-399.65 1234.53,-394.55 1270.53,-394.55 1270.53,-394.55 1270.53,-394.55 2716.99,-394.55 2807.71,-394.55 2830.39,-393.55 2921.11,-393.55 2921.11,-393.55 2921.11,-393.55 4300.76,-393.55 4346.56,-393.55 4367.34,-398.28 4395.3,-434.55 4419.24,-465.59 4427.27,-581 4429.79,-636.44"/>
<polygon fill="black" stroke="black" points="4426.28,-636.26 4430.19,-646.11 4433.27,-635.97 4426.28,-636.26"/>
<text xml:space="preserve" text-anchor="middle" x="2784.69" y="-398.67" font-family="Times,serif" font-size="14.00">OTHER</text>
</g>
<!-- i11 -->
<g id="node13" class="node">
<title>i11</title>
<ellipse fill="none" stroke="black" cx="1401.95" cy="-494.55" rx="23.38" ry="23.38"/>
<ellipse fill="none" stroke="black" cx="1401.95" cy="-494.55" rx="27.38" ry="27.38"/>
<text xml:space="preserve" text-anchor="middle" x="1401.95" y="-490.35" font-family="Times,serif" font-size="14.00">i11</text>
</g>
<!-- i10&#45;&gt;i11 -->
<g id="edge13" class="edge">
<title>i10-&gt;i11</title>
<path fill="none" stroke="black" d="M1297.9,-458.44C1317.07,-465.16 1343.64,-474.47 1365,-481.95"/>
<polygon fill="black" stroke="black" points="1363.61,-485.17 1374.2,-485.18 1365.92,-478.57 1363.61,-485.17"/>
<text xml:space="preserve" text-anchor="middle" x="1336.74" y="-482.91" font-family="Times,serif" font-size="14.00">BODY</text>
</g>
<!-- i10&#45;&gt;id -->
<g id="edge44" class="edge">
<title>i10-&gt;id</title>
<path fill="none" stroke="black" d="M1299.05,-446.27C1324.98,-443.36 1365.62,-439.55 1400.95,-439.55 1400.95,-439.55 1400.95,-439.55 2716.99,-439.55 2838.3,-439.55 2868.51,-431.55 2989.82,-431.55 2989.82,-431.55 2989.82,-431.55 4300.76,-431.55 4347.49,-431.55 4366.95,-440.4 4395.3,-477.55 4414.03,-502.09 4424.25,-589.78 4428.48,-636.59"/>
<polygon fill="black" stroke="black" points="4424.97,-636.65 4429.32,-646.31 4431.95,-636.05 4424.97,-636.65"/>
<text xml:space="preserve" text-anchor="middle" x="2853.4" y="-440.93" font-family="Times,serif" font-size="14.00">OTHER</text>
</g>
<!-- i12 -->
<g id="node14" class="node">
<title>i12</title>
<ellipse fill="none" stroke="black" cx="1532.37" cy="-532.55" rx="23.38" ry="23.38"/>
<ellipse fill="none" stroke="black" cx="1532.37" cy="-532.55" rx="27.38" ry="27.38"/>
<text xml:space="preserve" text-anchor="middle" x="1532.37" y="-528.35" font-family="Times,serif" font-size="14.00">i12</text>
</g>
<!-- i11&#45;&gt;i12 -->
<g id="edge14" class="edge">
<title>i11-&gt;i12</title>
<path fill="none" stroke="black" d="M1428.63,-502.15C1447.62,-507.76 1473.73,-515.49 1494.89,-521.75"/>
<polygon fill="black" stroke="black" points="1493.7,-525.05 1504.29,-524.53 1495.69,-518.34 1493.7,-525.05"/>
<text xml:space="preserve" text-anchor="middle" x="1467.16" y="-523.37" font-family="Times,serif" font-size="14.00">BODY</text>
</g>
<!-- i11&#45;&gt;id -->
<g id="edge45" class="edge">
<title>i11-&gt;id</title>
<path fill="none" stroke="black" d="M1428.89,-489.08C1454.73,-484.11 1495.61,-477.55 1531.37,-477.55 1531.37,-477.55 1531.37,-477.55 2854.4,-477.55 2945.12,-477.55 2967.8,-476.55 3058.52,-476.55 3058.52,-476.55 3058.52,-476.55 4300.76,-476.55 4346.56,-476.55 4365.87,-482.46 4395.3,-517.55 4423.61,-551.3 4430.17,-603.76 4431.27,-636.59"/>
<polygon fill="black" stroke="black" points="4427.76,-636.27 4431.43,-646.21 4434.76,-636.15 4427.76,-636.27"/>
<text xml:space="preserve" text-anchor="middle" x="2922.11" y="-481.67" font-family="Times,serif" font-size="14.00">OTHER</text>
</g>
<!-- i13 -->
<g id="node15" class="node">
<title>i13</title>
<ellipse fill="none" stroke="black" cx="1662.79" cy="-577.55" rx="23.38" ry="23.38"/>
<ellipse fill="none" stroke="black" cx="1662.79" cy="-577.55" rx="27.38" ry="27.38"/>
<text xml:space="preserve" text-anchor="middle" x="1662.79" y="-573.35" font-family="Times,serif" font-size="14.00">i13</text>
</g>
<!-- i12&#45;&gt;i13 -->
<g id="edge15" class="edge">
<title>i12-&gt;i13</title>
<path fill="none" stroke="black" d="M1558.74,-541.44C1577.92,-548.16 1604.49,-557.47 1625.85,-564.95"/>
<polygon fill="black" stroke="black" points="1624.45,-568.17 1635.05,-568.18 1626.77,-561.57 1624.45,-568.17"/>
<text xml:space="preserve" text-anchor="middle" x="1597.58" y="-565.91" font-family="Times,serif" font-size="14.00">BODY</text>
</g>
<!-- i12&#45;&gt;id -->
<g id="edge46" class="edge">
<title>i12-&gt;id</title>
<path fill="none" stroke="black" d="M1559.89,-529.27C1585.82,-526.36 1626.46,-522.55 1661.79,-522.55 1661.79,-522.55 1661.79,-522.55 2854.4,-522.55 2975.71,-522.55 3005.92,-514.55 3127.23,-514.55 3127.23,-514.55 3127.23,-514.55 4300.76,-514.55 4346.74,-514.55 4364.55,-522.37 4395.3,-556.55 4415.28,-578.76 4424.05,-612.33 4427.88,-636.54"/>
<polygon fill="black" stroke="black" points="4424.41,-636.98 4429.23,-646.41 4431.34,-636.03 4424.41,-636.98"/>
<text xml:space="preserve" text-anchor="middle" x="2990.82" y="-523.93" font-family="Times,serif" font-size="14.00">OTHER</text>
</g>
<!-- i14 -->
<g id="node16" class="node">
<title>i14</title>
<ellipse fill="none" stroke="black" cx="1793.22" cy="-615.55" rx="23.38" ry="23.38"/>
<ellipse fill="none" stroke="black" cx="1793.22" cy="-615.55" rx="27.38" ry="27.38"/>
<text xml:space="preserve" text-anchor="middle" x="1793.22" y="-611.35" font-family="Times,serif" font-size="14.00">i14</text>
</g>
<!-- i13&#45;&gt;i14 -->
<g id="edge16" class="edge">
<title>i13-&gt;i14</title>
<path fill="none" stroke="black" d="M1689.47,-585.15C1708.46,-590.76 1734.58,-598.49 1755.73,-604.75"/>
<polygon fill="black" stroke="black" points="1754.55,-608.05 1765.13,-607.53 1756.53,-601.34 1754.55,-608.05"/>
<text xml:space="preserve" text-anchor="middle" x="1728.01" y="-606.37" font-family="Times,serif" font-size="14.00">BODY</text>
</g>
<!-- i13&#45;&gt;id -->
<g id="edge47" class="edge">
<title>i13-&gt;id</title>
<path fill="none" stroke="black" d="M1689.73,-572.08C1715.58,-567.11 1756.46,-560.55 1792.22,-560.55 1792.22,-560.55 1792.22,-560.55 2991.82,-560.55 3113.13,-560.55 3143.34,-552.55 3264.65,-552.55 3264.65,-552.55 3264.65,-552.55 4300.76,-552.55 4347.11,-552.55 4361.97,-564.34 4395.3,-596.55 4407.14,-607.98 4415.71,-624.2 4421.47,-638.15"/>
<polygon fill="black" stroke="black" points="4418.13,-639.2 4424.96,-647.29 4424.67,-636.7 4418.13,-639.2"/>
<text xml:space="preserve" text-anchor="middle" x="3059.52" y="-564.42" font-family="Times,serif" font-size="14.00">OTHER</text>
</g>
<!-- i15 -->
<g id="node17" class="node">
<title>i15</title>
<ellipse fill="none" stroke="black" cx="1923.64" cy="-660.55" rx="23.38" ry="23.38"/>
<ellipse fill="none" stroke="black" cx="1923.64" cy="-660.55" rx="27.38" ry="27.38"/>
<text xml:space="preserve" text-anchor="middle" x="1923.64" y="-656.35" font-family="Times,serif" font-size="14.00">i15</text>
</g>
<!-- i14&#45;&gt;i15 -->
<g id="edge17" class="edge">
<title>i14-&gt;i15</title>
<path fill="none" stroke="black" d="M1819.59,-624.44C1838.76,-631.16 1865.33,-640.47 1886.69,-647.95"/>
<polygon fill="black" stroke="black" points="1885.3,-651.17 1895.89,-651.18 1887.61,-644.57 1885.3,-651.17"/>
<text xml:space="preserve" text-anchor="middle" x="1858.43" y="-648.91" font-family="Times,serif" font-size="14.00">BODY</text>
</g>
<!-- i14&#45;&gt;id -->
<g id="edge48" class="edge">
<title>i14-&gt;id</title>
<path fill="none" stroke="black" d="M1820.73,-612.27C1846.67,-609.36 1887.3,-605.55 1922.64,-605.55 1922.64,-605.55 1922.64,-605.55 2991.82,-605.55 3113.26,-605.55 3143.21,-590.55 3264.65,-590.55 3264.65,-590.55 3264.65,-590.55 4300.76,-590.55 4346.56,-590.55 4357.33,-605.94 4395.3,-631.55 4400.78,-635.24 4406.14,-639.84 4410.98,-644.48"/>
<polygon fill="black" stroke="black" points="4408.47,-646.91 4417.97,-651.59 4413.46,-642.01 4408.47,-646.91"/>
<text xml:space="preserve" text-anchor="middle" x="3128.23" y="-604.47" font-family="Times,serif" font-size="14.00">OTHER</text>
</g>
<!-- i16 -->
<g id="node18" class="node">
<title>i16</title>
<ellipse fill="none" stroke="black" cx="2054.06" cy="-698.55" rx="23.38" ry="23.38"/>
<ellipse fill="none" stroke="black" cx="2054.06" cy="-698.55" rx="27.38" ry="27.38"/>
<text xml:space="preserve" text-anchor="middle" x="2054.06" y="-694.35" font-family="Times,serif" font-size="14.00">i16</text>
</g>
<!-- i15&#45;&gt;i16 -->
<g id="edge18" class="edge">
<title>i15-&gt;i16</title>
<path fill="none" stroke="black" d="M1950.32,-668.15C1969.3,-673.76 1995.42,-681.49 2016.57,-687.75"/>
<polygon fill="black" stroke="black" points="2015.39,-691.05 2025.97,-690.53 2017.38,-684.34 2015.39,-691.05"/>
<text xml:space="preserve" text-anchor="middle" x="1988.85" y="-689.37" font-family="Times,serif" font-size="14.00">BODY</text>
</g>
<!-- i15&#45;&gt;id -->
<g id="edge49" class="edge">
<title>i15-&gt;id</title>
<path fill="none" stroke="black" d="M1950.58,-655.08C1976.42,-650.11 2017.3,-643.55 2053.06,-643.55 2053.06,-643.55 2053.06,-643.55 2991.82,-643.55 3174.27,-643.55 3219.61,-628.55 3402.06,-628.55 3402.06,-628.55 3402.06,-628.55 4300.76,-628.55 4337.86,-628.55 4378.61,-642.96 4404.43,-654.04"/>
<polygon fill="black" stroke="black" points="4402.92,-657.19 4413.48,-658.06 4405.76,-650.8 4402.92,-657.19"/>
<text xml:space="preserve" text-anchor="middle" x="3196.94" y="-641.97" font-family="Times,serif" font-size="14.00">OTHER</text>
</g>
<!-- i17 -->
<g id="node19" class="node">
<title>i17</title>
<ellipse fill="none" stroke="black" cx="2235.03" cy="-736.55" rx="23.38" ry="23.38"/>
<ellipse fill="none" stroke="black" cx="2235.03" cy="-736.55" rx="27.38" ry="27.38"/>
<text xml:space="preserve" text-anchor="middle" x="2235.03" y="-732.35" font-family="Times,serif" font-size="14.00">i17</text>
</g>
<!-- i16&#45;&gt;i17 -->
<g id="edge19" class="edge">
<title>i16-&gt;i17</title>
<path fill="none" stroke="black" d="M2081.08,-704.07C2111.57,-710.55 2162.3,-721.32 2196.91,-728.67"/>
<polygon fill="black" stroke="black" points="2195.99,-732.05 2206.5,-730.7 2197.44,-725.2 2195.99,-732.05"/>
<text xml:space="preserve" text-anchor="middle" x="2144.55" y="-730.56" font-family="Times,serif" font-size="14.00">BODY</text>
</g>
<!-- i16&#45;&gt;id -->
<g id="edge50" class="edge">
<title>i16-&gt;id</title>
<path fill="none" stroke="black" d="M2081.37,-694.48C2116.2,-689.45 2179.57,-681.55 2234.03,-681.55 2234.03,-681.55 2234.03,-681.55 3129.23,-681.55 3250.67,-681.55 3280.62,-666.55 3402.06,-666.55 3402.06,-666.55 3402.06,-666.55 4300.76,-666.55 4335.47,-666.55 4375.38,-666.55 4401.74,-666.55"/>
<polygon fill="black" stroke="black" points="4401.66,-670.05 4411.66,-666.55 4401.66,-663.05 4401.66,-670.05"/>
<text xml:space="preserve" text-anchor="middle" x="3265.65" y="-680.47" font-family="Times,serif" font-size="14.00">OTHER</text>
</g>
<!-- i18 -->
<g id="node20" class="node">
<title>i18</title>
<ellipse fill="none" stroke="black" cx="2372.45" cy="-774.55" rx="23.38" ry="23.38"/>
<ellipse fill="none" stroke="black" cx="2372.45" cy="-774.55" rx="27.38" ry="27.38"/>
<text xml:space="preserve" text-anchor="middle" x="2372.45" y="-770.35" font-family="Times,serif" font-size="14.00">i18</text>
</g>
<!-- i17&#45;&gt;i18 -->
<g id="edge20" class="edge">
<title>i17-&gt;i18</title>
<path fill="none" stroke="black" d="M2261.82,-743.78C2282.53,-749.6 2311.86,-757.83 2334.97,-764.31"/>
<polygon fill="black" stroke="black" points="2333.72,-767.6 2344.3,-766.93 2335.62,-760.86 2333.72,-767.6"/>
<text xml:space="preserve" text-anchor="middle" x="2303.74" y="-765.37" font-family="Times,serif" font-size="14.00">BODY</text>
</g>
<!-- i17&#45;&gt;id -->
<g id="edge51" class="edge">
<title>i17-&gt;id</title>
<path fill="none" stroke="black" d="M2262.38,-731.26C2289.58,-726.27 2333.3,-719.55 2371.45,-719.55 2371.45,-719.55 2371.45,-719.55 3129.23,-719.55 3311.68,-719.55 3357.02,-704.55 3539.48,-704.55 3539.48,-704.55 3539.48,-704.55 4300.76,-704.55 4337.86,-704.55 4378.61,-690.13 4404.43,-679.06"/>
<polygon fill="black" stroke="black" points="4405.76,-682.3 4413.48,-675.04 4402.92,-675.9 4405.76,-682.3"/>
<text xml:space="preserve" text-anchor="middle" x="3334.35" y="-717.97" font-family="Times,serif" font-size="14.00">OTHER</text>
</g>
<!-- i19 -->
<g id="node21" class="node">
<title>i19</title>
<ellipse fill="none" stroke="black" cx="2509.86" cy="-812.55" rx="23.38" ry="23.38"/>
<ellipse fill="none" stroke="black" cx="2509.86" cy="-812.55" rx="27.38" ry="27.38"/>
<text xml:space="preserve" text-anchor="middle" x="2509.86" y="-808.35" font-family="Times,serif" font-size="14.00">i19</text>
</g>
<!-- i18&#45;&gt;i19 -->
<g id="edge21" class="edge">
<title>i18-&gt;i19</title>
<path fill="none" stroke="black" d="M2399.24,-781.78C2419.95,-787.6 2449.28,-795.83 2472.39,-802.31"/>
<polygon fill="black" stroke="black" points="2471.14,-805.6 2481.71,-804.93 2473.03,-798.86 2471.14,-805.6"/>
<text xml:space="preserve" text-anchor="middle" x="2441.16" y="-803.37" font-family="Times,serif" font-size="14.00">BODY</text>
</g>
<!-- i18&#45;&gt;id -->
<g id="edge52" class="edge">
<title>i18-&gt;id</title>
<path fill="none" stroke="black" d="M2399.79,-769.26C2426.99,-764.27 2470.72,-757.55 2508.86,-757.55 2508.86,-757.55 2508.86,-757.55 3266.65,-757.55 3388.09,-757.55 3418.04,-742.55 3539.48,-742.55 3539.48,-742.55 3539.48,-742.55 4300.76,-742.55 4344.11,-742.55 4359.77,-743.38 4395.3,-718.55 4404.42,-712.18 4411.9,-702.66 4417.61,-693.5"/>
<polygon fill="black" stroke="black" points="4420.65,-695.24 4422.55,-684.82 4414.57,-691.78 4420.65,-695.24"/>
<text xml:space="preserve" text-anchor="middle" x="3403.06" y="-756.47" font-family="Times,serif" font-size="14.00">OTHER</text>
</g>
<!-- i20 -->
<g id="node22" class="node">
<title>i20</title>
<ellipse fill="none" stroke="black" cx="2647.28" cy="-850.55" rx="23.38" ry="23.38"/>
<ellipse fill="none" stroke="black" cx="2647.28" cy="-850.55" rx="27.38" ry="27.38"/>
<text xml:space="preserve" text-anchor="middle" x="2647.28" y="-846.35" font-family="Times,serif" font-size="14.00">i20</text>
</g>
<!-- i19&#45;&gt;i20 -->
<g id="edge22" class="edge">
<title>i19-&gt;i20</title>
<path fill="none" stroke="black" d="M2536.65,-819.78C2557.36,-825.6 2586.69,-833.83 2609.8,-840.31"/>
<polygon fill="black" stroke="black" points="2608.55,-843.6 2619.13,-842.93 2610.45,-836.86 2608.55,-843.6"/>
<text xml:space="preserve" text-anchor="middle" x="2578.57" y="-841.37" font-family="Times,serif" font-size="14.00">BODY</text>
</g>
<!-- i19&#45;&gt;id -->
<g id="edge53" class="edge">
<title>i19-&gt;id</title>
<path fill="none" stroke="black" d="M2537.21,-807.26C2564.41,-802.27 2608.13,-795.55 2646.28,-795.55 2646.28,-795.55 2646.28,-795.55 3266.65,-795.55 3449.1,-795.55 3494.44,-780.55 3676.89,-780.55 3676.89,-780.55 3676.89,-780.55 4300.76,-780.55 4344.11,-780.55 4362.76,-785.19 4395.3,-756.55 4412.72,-741.22 4421.69,-716.23 4426.26,-696.47"/>
<polygon fill="black" stroke="black" points="4429.67,-697.25 4428.22,-686.75 4422.81,-695.86 4429.67,-697.25"/>
<text xml:space="preserve" text-anchor="middle" x="3471.77" y="-793.97" font-family="Times,serif" font-size="14.00">OTHER</text>
</g>
<!-- i21 -->
<g id="node23" class="node">
<title>i21</title>
<ellipse fill="none" stroke="black" cx="2784.69" cy="-888.55" rx="23.38" ry="23.38"/>
<ellipse fill="none" stroke="black" cx="2784.69" cy="-888.55" rx="27.38" ry="27.38"/>
<text xml:space="preserve" text-anchor="middle" x="2784.69" y="-884.35" font-family="Times,serif" font-size="14.00">i21</text>
</g>
<!-- i20&#45;&gt;i21 -->
<g id="edge23" class="edge">
<title>i20-&gt;i21</title>
<path fill="none" stroke="black" d="M2674.07,-857.78C2694.78,-863.6 2724.11,-871.83 2747.22,-878.31"/>
<polygon fill="black" stroke="black" points="2745.97,-881.6 2756.54,-880.93 2747.86,-874.86 2745.97,-881.6"/>
<text xml:space="preserve" text-anchor="middle" x="2715.99" y="-879.37" font-family="Times,serif" font-size="14.00">BODY</text>
</g>
<!-- i20&#45;&gt;id -->
<g id="edge54" class="edge">
<title>i20-&gt;id</title>
<path fill="none" stroke="black" d="M2674.62,-845.26C2701.82,-840.27 2745.55,-833.55 2783.69,-833.55 2783.69,-833.55 2783.69,-833.55 3404.06,-833.55 3525.5,-833.55 3555.45,-818.55 3676.89,-818.55 3676.89,-818.55 3676.89,-818.55 4300.76,-818.55 4344.11,-818.55 4364.31,-824.86 4395.3,-794.55 4421.42,-769.01 4428.82,-726.08 4430.68,-697.05"/>
<polygon fill="black" stroke="black" points="4434.17,-697.21 4431.1,-687.07 4427.18,-696.91 4434.17,-697.21"/>
<text xml:space="preserve" text-anchor="middle" x="3540.48" y="-832.47" font-family="Times,serif" font-size="14.00">OTHER</text>
</g>
<!-- i22 -->
<g id="node24" class="node">
<title>i22</title>
<ellipse fill="none" stroke="black" cx="2922.11" cy="-926.55" rx="23.38" ry="23.38"/>
<ellipse fill="none" stroke="black" cx="2922.11" cy="-926.55" rx="27.38" ry="27.38"/>
<text xml:space="preserve" text-anchor="middle" x="2922.11" y="-922.35" font-family="Times,serif" font-size="14.00">i22</text>
</g>
<!-- i21&#45;&gt;i22 -->
<g id="edge24" class="edge">
<title>i21-&gt;i22</title>
<path fill="none" stroke="black" d="M2811.48,-895.78C2832.19,-901.6 2861.52,-909.83 2884.63,-916.31"/>
<polygon fill="black" stroke="black" points="2883.38,-919.6 2893.96,-918.93 2885.28,-912.86 2883.38,-919.6"/>
<text xml:space="preserve" text-anchor="middle" x="2853.4" y="-917.37" font-family="Times,serif" font-size="14.00">BODY</text>
</g>
<!-- i21&#45;&gt;id -->
<g id="edge55" class="edge">
<title>i21-&gt;id</title>
<path fill="none" stroke="black" d="M2812.04,-883.26C2839.24,-878.27 2882.96,-871.55 2921.11,-871.55 2921.11,-871.55 2921.11,-871.55 3404.06,-871.55 3586.51,-871.55 3631.85,-856.55 3814.31,-856.55 3814.31,-856.55 3814.31,-856.55 4300.76,-856.55 4344.11,-856.55 4365.23,-863.77 4395.3,-832.55 4413.72,-813.43 4423.82,-739.02 4428.19,-696.6"/>
<polygon fill="black" stroke="black" points="4431.65,-697.11 4429.14,-686.81 4424.69,-696.43 4431.65,-697.11"/>
<text xml:space="preserve" text-anchor="middle" x="3609.18" y="-869.97" font-family="Times,serif" font-size="14.00">OTHER</text>
</g>
<!-- i23 -->
<g id="node25" class="node">
<title>i23</title>
<ellipse fill="none" stroke="black" cx="3059.52" cy="-964.55" rx="23.38" ry="23.38"/>
<ellipse fill="none" stroke="black" cx="3059.52" cy="-964.55" rx="27.38" ry="27.38"/>
<text xml:space="preserve" text-anchor="middle" x="3059.52" y="-960.35" font-family="Times,serif" font-size="14.00">i23</text>
</g>
<!-- i22&#45;&gt;i23 -->
<g id="edge25" class="edge">
<title>i22-&gt;i23</title>
<path fill="none" stroke="black" d="M2948.9,-933.78C2969.61,-939.6 2998.94,-947.83 3022.05,-954.31"/>
<polygon fill="black" stroke="black" points="3020.8,-957.6 3031.37,-956.93 3022.69,-950.86 3020.8,-957.6"/>
<text xml:space="preserve" text-anchor="middle" x="2990.82" y="-955.37" font-family="Times,serif" font-size="14.00">BODY</text>
</g>
<!-- i22&#45;&gt;id -->
<g id="edge56" class="edge">
<title>i22-&gt;id</title>
<path fill="none" stroke="black" d="M2949.45,-921.26C2976.65,-916.27 3020.38,-909.55 3058.52,-909.55 3058.52,-909.55 3058.52,-909.55 3541.48,-909.55 3662.92,-909.55 3692.87,-894.55 3814.31,-894.55 3814.31,-894.55 3814.31,-894.55 4300.76,-894.55 4344.11,-894.55 4365.84,-902.35 4395.3,-870.55 4418.27,-845.76 4426.68,-747.36 4429.52,-696.84"/>
<polygon fill="black" stroke="black" points="4433.01,-697.06 4430.04,-686.89 4426.02,-696.7 4433.01,-697.06"/>
<text xml:space="preserve" text-anchor="middle" x="3677.89" y="-908.47" font-family="Times,serif" font-size="14.00">OTHER</text>
</g>
<!-- i24 -->
<g id="node26" class="node">
<title>i24</title>
<ellipse fill="none" stroke="black" cx="3196.94" cy="-1002.55" rx="23.38" ry="23.38"/>
<ellipse fill="none" stroke="black" cx="3196.94" cy="-1002.55" rx="27.38" ry="27.38"/>
<text xml:space="preserve" text-anchor="middle" x="3196.94" y="-998.35" font-family="Times,serif" font-size="14.00">i24</text>
</g>
<!-- i23&#45;&gt;i24 -->
<g id="edge26" class="edge">
<title>i23-&gt;i24</title>
<path fill="none" stroke="black" d="M3086.31,-971.78C3107.02,-977.6 3136.35,-985.83 3159.46,-992.31"/>
<polygon fill="black" stroke="black" points="3158.21,-995.6 3168.79,-994.93 3160.11,-988.86 3158.21,-995.6"/>
<text xml:space="preserve" text-anchor="middle" x="3128.23" y="-993.37" font-family="Times,serif" font-size="14.00">BODY</text>
</g>
<!-- i23&#45;&gt;id -->
<g id="edge57" class="edge">
<title>i23-&gt;id</title>
<path fill="none" stroke="black" d="M3086.87,-959.26C3114.07,-954.27 3157.79,-947.55 3195.94,-947.55 3195.94,-947.55 3195.94,-947.55 3541.48,-947.55 3693.31,-947.55 3731.18,-939.55 3883.01,-939.55 3883.01,-939.55 3883.01,-939.55 4300.76,-939.55 4344.98,-939.55 4366.82,-942.37 4395.3,-908.55 4421.86,-877.01 4428.58,-754.07 4430.28,-696.54"/>
<polygon fill="black" stroke="black" points="4433.77,-696.92 4430.53,-686.83 4426.77,-696.74 4433.77,-696.92"/>
<text xml:space="preserve" text-anchor="middle" x="3746.6" y="-947.42" font-family="Times,serif" font-size="14.00">OTHER</text>
</g>
<!-- i25 -->
<g id="node27" class="node">
<title>i25</title>
<ellipse fill="none" stroke="black" cx="3334.35" cy="-1040.55" rx="23.38" ry="23.38"/>
<ellipse fill="none" stroke="black" cx="3334.35" cy="-1040.55" rx="27.38" ry="27.38"/>
<text xml:space="preserve" text-anchor="middle" x="3334.35" y="-1036.35" font-family="Times,serif" font-size="14.00">i25</text>
</g>
<!-- i24&#45;&gt;i25 -->
<g id="edge27" class="edge">
<title>i24-&gt;i25</title>
<path fill="none" stroke="black" d="M3223.73,-1009.78C3244.44,-1015.6 3273.77,-1023.83 3296.88,-1030.31"/>
<polygon fill="black" stroke="black" points="3295.63,-1033.6 3306.2,-1032.93 3297.52,-1026.86 3295.63,-1033.6"/>
<text xml:space="preserve" text-anchor="middle" x="3265.65" y="-1031.37" font-family="Times,serif" font-size="14.00">BODY</text>
</g>
<!-- i24&#45;&gt;id -->
<g id="edge58" class="edge">
<title>i24-&gt;id</title>
<path fill="none" stroke="black" d="M3224.28,-997.26C3251.48,-992.27 3295.21,-985.55 3333.35,-985.55 3333.35,-985.55 3333.35,-985.55 3678.89,-985.55 3800.2,-985.55 3830.41,-977.55 3951.72,-977.55 3951.72,-977.55 3951.72,-977.55 4300.76,-977.55 4344.11,-977.55 4366.63,-986.06 4395.3,-953.55 4428.44,-915.97 4431.51,-762.55 4431.26,-696.75"/>
<polygon fill="black" stroke="black" points="4434.76,-697.02 4431.19,-687.04 4427.76,-697.07 4434.76,-697.02"/>
<text xml:space="preserve" text-anchor="middle" x="3815.31" y="-986.93" font-family="Times,serif" font-size="14.00">OTHER</text>
</g>
<!-- i26 -->
<g id="node28" class="node">
<title>i26</title>
<ellipse fill="none" stroke="black" cx="3471.77" cy="-1078.55" rx="23.38" ry="23.38"/>
<ellipse fill="none" stroke="black" cx="3471.77" cy="-1078.55" rx="27.38" ry="27.38"/>
<text xml:space="preserve" text-anchor="middle" x="3471.77" y="-1074.35" font-family="Times,serif" font-size="14.00">i26</text>
</g>
<!-- i25&#45;&gt;i26 -->
<g id="edge28" class="edge">
<title>i25-&gt;i26</title>
<path fill="none" stroke="black" d="M3361.14,-1047.78C3381.85,-1053.6 3411.18,-1061.83 3434.29,-1068.31"/>
<polygon fill="black" stroke="black" points="3433.04,-1071.6 3443.62,-1070.93 3434.94,-1064.86 3433.04,-1071.6"/>
<text xml:space="preserve" text-anchor="middle" x="3403.06" y="-1069.37" font-family="Times,serif" font-size="14.00">BODY</text>
</g>
<!-- i25&#45;&gt;id -->
<g id="edge59" class="edge">
<title>i25-&gt;id</title>
<path fill="none" stroke="black" d="M3361.7,-1035.26C3388.9,-1030.27 3432.62,-1023.55 3470.77,-1023.55 3470.77,-1023.55 3470.77,-1023.55 3816.31,-1023.55 3907.03,-1023.55 3929.71,-1022.55 4020.43,-1022.55 4020.43,-1022.55 4020.43,-1022.55 4300.76,-1022.55 4344.98,-1022.55 4367.45,-1025.89 4395.3,-991.55 4431.64,-946.75 4432.68,-768.24 4431.57,-696.56"/>
<polygon fill="black" stroke="black" points="4435.08,-696.69 4431.39,-686.75 4428.08,-696.82 4435.08,-696.69"/>
<text xml:space="preserve" text-anchor="middle" x="3884.01" y="-1027.67" font-family="Times,serif" font-size="14.00">OTHER</text>
</g>
<!-- i27 -->
<g id="node29" class="node">
<title>i27</title>
<ellipse fill="none" stroke="black" cx="3609.18" cy="-1123.55" rx="23.38" ry="23.38"/>
<ellipse fill="none" stroke="black" cx="3609.18" cy="-1123.55" rx="27.38" ry="27.38"/>
<text xml:space="preserve" text-anchor="middle" x="3609.18" y="-1119.35" font-family="Times,serif" font-size="14.00">i27</text>
</g>
<!-- i26&#45;&gt;i27 -->
<g id="edge29" class="edge">
<title>i26-&gt;i27</title>
<path fill="none" stroke="black" d="M3498.24,-1087.01C3519.05,-1093.93 3548.71,-1103.78 3571.98,-1111.52"/>
<polygon fill="black" stroke="black" points="3570.8,-1114.81 3581.39,-1114.64 3573.01,-1108.17 3570.8,-1114.81"/>
<text xml:space="preserve" text-anchor="middle" x="3540.48" y="-1111.91" font-family="Times,serif" font-size="14.00">BODY</text>
</g>
<!-- i26&#45;&gt;id -->
<g id="edge60" class="edge">
<title>i26-&gt;id</title>
<path fill="none" stroke="black" d="M3499.45,-1075.41C3526.73,-1072.48 3570.35,-1068.55 3608.18,-1068.55 3608.18,-1068.55 3608.18,-1068.55 3816.31,-1068.55 3937.62,-1068.55 3967.83,-1060.55 4089.14,-1060.55 4089.14,-1060.55 4089.14,-1060.55 4300.76,-1060.55 4344.11,-1060.55 4367.08,-1069.45 4395.3,-1036.55 4417.25,-1010.96 4427.06,-780.55 4429.92,-696.8"/>
<polygon fill="black" stroke="black" points="4433.41,-696.95 4430.24,-686.84 4426.42,-696.72 4433.41,-696.95"/>
<text xml:space="preserve" text-anchor="middle" x="3952.72" y="-1069.93" font-family="Times,serif" font-size="14.00">OTHER</text>
</g>
<!-- i28 -->
<g id="node30" class="node">
<title>i28</title>
<ellipse fill="none" stroke="black" cx="3746.6" cy="-1161.55" rx="23.38" ry="23.38"/>
<ellipse fill="none" stroke="black" cx="3746.6" cy="-1161.55" rx="27.38" ry="27.38"/>
<text xml:space="preserve" text-anchor="middle" x="3746.6" y="-1157.35" font-family="Times,serif" font-size="14.00">i28</text>
</g>
<!-- i27&#45;&gt;i28 -->
<g id="edge30" class="edge">
<title>i27-&gt;i28</title>
<path fill="none" stroke="black" d="M3635.97,-1130.78C3656.68,-1136.6 3686.01,-1144.83 3709.12,-1151.31"/>
<polygon fill="black" stroke="black" points="3707.87,-1154.6 3718.45,-1153.93 3709.77,-1147.86 3707.87,-1154.6"/>
<text xml:space="preserve" text-anchor="middle" x="3677.89" y="-1152.37" font-family="Times,serif" font-size="14.00">BODY</text>
</g>
<!-- i27&#45;&gt;id -->
<g id="edge61" class="edge">
<title>i27-&gt;id</title>
<path fill="none" stroke="black" d="M3636.53,-1118.26C3663.73,-1113.27 3707.45,-1106.55 3745.6,-1106.55 3745.6,-1106.55 3745.6,-1106.55 4300.76,-1106.55 4345.12,-1106.55 4367.91,-1109.44 4395.3,-1074.55 4418.5,-1045.01 4427.62,-786.25 4430.1,-696.81"/>
<polygon fill="black" stroke="black" points="4433.6,-696.95 4430.36,-686.86 4426.6,-696.77 4433.6,-696.95"/>
<text xml:space="preserve" text-anchor="middle" x="4021.43" y="-1110.75" font-family="Times,serif" font-size="14.00">OTHER</text>
</g>
<!-- i29 -->
<g id="node31" class="node">
<title>i29</title>
<ellipse fill="none" stroke="black" cx="3884.01" cy="-1206.55" rx="23.38" ry="23.38"/>
<ellipse fill="none" stroke="black" cx="3884.01" cy="-1206.55" rx="27.38" ry="27.38"/>
<text xml:space="preserve" text-anchor="middle" x="3884.01" y="-1202.35" font-family="Times,serif" font-size="14.00">i29</text>
</g>
<!-- i28&#45;&gt;i29 -->
<g id="edge31" class="edge">
<title>i28-&gt;i29</title>
<path fill="none" stroke="black" d="M3773.07,-1170.01C3793.88,-1176.93 3823.54,-1186.78 3846.81,-1194.52"/>
<polygon fill="black" stroke="black" points="3845.63,-1197.81 3856.22,-1197.64 3847.84,-1191.17 3845.63,-1197.81"/>
<text xml:space="preserve" text-anchor="middle" x="3815.31" y="-1194.91" font-family="Times,serif" font-size="14.00">BODY</text>
</g>
<!-- i28&#45;&gt;id -->
<g id="edge62" class="edge">
<title>i28-&gt;id</title>
<path fill="none" stroke="black" d="M3774.1,-1161.87C3890.23,-1163.02 4350.45,-1164.73 4395.3,-1120.55 4425.45,-1090.85 4430.03,-793.3 4430.73,-696.68"/>
<polygon fill="black" stroke="black" points="4434.23,-696.95 4430.79,-686.93 4427.23,-696.91 4434.23,-696.95"/>
<text xml:space="preserve" text-anchor="middle" x="4090.14" y="-1163.75" font-family="Times,serif" font-size="14.00">OTHER</text>
</g>
<!-- i30 -->
<g id="node32" class="node">
<title>i30</title>
<ellipse fill="none" stroke="black" cx="4021.43" cy="-1245.55" rx="23.38" ry="23.38"/>
<ellipse fill="none" stroke="black" cx="4021.43" cy="-1245.55" rx="27.38" ry="27.38"/>
<text xml:space="preserve" text-anchor="middle" x="4021.43" y="-1241.35" font-family="Times,serif" font-size="14.00">i30</text>
</g>
<!-- i29&#45;&gt;i30 -->
<g id="edge32" class="edge">
<title>i29-&gt;i30</title>
<path fill="none" stroke="black" d="M3910.8,-1213.98C3931.51,-1219.94 3960.84,-1228.39 3983.95,-1235.04"/>
<polygon fill="black" stroke="black" points="3982.7,-1238.33 3993.28,-1237.73 3984.64,-1231.6 3982.7,-1238.33"/>
<text xml:space="preserve" text-anchor="middle" x="3952.72" y="-1236.02" font-family="Times,serif" font-size="14.00">BODY</text>
</g>
<!-- i29&#45;&gt;id -->
<g id="edge63" class="edge">
<title>i29-&gt;id</title>
<path fill="none" stroke="black" d="M3911.37,-1201.57C3938.58,-1196.88 3982.32,-1190.55 4020.43,-1190.55 4020.43,-1190.55 4020.43,-1190.55 4300.76,-1190.55 4345.12,-1190.55 4368.16,-1193.64 4395.3,-1158.55 4423.53,-1122.05 4429.42,-798.32 4430.58,-696.84"/>
<polygon fill="black" stroke="black" points="4434.08,-696.89 4430.69,-686.85 4427.08,-696.81 4434.08,-696.89"/>
<text xml:space="preserve" text-anchor="middle" x="4158.84" y="-1194.75" font-family="Times,serif" font-size="14.00">OTHER</text>
</g>
<!-- i31 -->
<g id="node33" class="node">
<title>i31</title>
<ellipse fill="none" stroke="black" cx="4158.84" cy="-1292.55" rx="23.38" ry="23.38"/>
<ellipse fill="none" stroke="black" cx="4158.84" cy="-1292.55" rx="27.38" ry="27.38"/>
<text xml:space="preserve" text-anchor="middle" x="4158.84" y="-1288.35" font-family="Times,serif" font-size="14.00">i31</text>
</g>
<!-- i30&#45;&gt;i31 -->
<g id="edge33" class="edge">
<title>i30-&gt;i31</title>
<path fill="none" stroke="black" d="M4047.58,-1254.28C4068.58,-1261.57 4098.76,-1272.04 4122.24,-1280.19"/>
<polygon fill="black" stroke="black" points="4120.8,-1283.4 4131.4,-1283.37 4123.1,-1276.78 4120.8,-1283.4"/>
<text xml:space="preserve" text-anchor="middle" x="4090.14" y="-1280.2" font-family="Times,serif" font-size="14.00">BODY</text>
</g>
<!-- i30&#45;&gt;id -->
<g id="edge64" class="edge">
<title>i30-&gt;id</title>
<path fill="none" stroke="black" d="M4049.09,-1246.82C4126.35,-1249.87 4347.9,-1254.06 4395.3,-1204.55 4430.52,-1167.76 4431.55,-804.76 4431.07,-696.73"/>
<polygon fill="black" stroke="black" points="4434.57,-696.9 4431.01,-686.92 4427.57,-696.94 4434.57,-696.9"/>
<text xml:space="preserve" text-anchor="middle" x="4227.55" y="-1251.06" font-family="Times,serif" font-size="14.00">OTHER</text>
</g>
<!-- i31&#45;&gt;id -->
<g id="edge65" class="edge">
<title>i31-&gt;id</title>
<path fill="none" stroke="black" d="M4179.15,-1311.33C4199.54,-1329.74 4233.56,-1356.57 4268.88,-1367.55 4329.61,-1386.42 4369.85,-1358.82 4395.3,-1300.55 4419.62,-1244.87 4428.42,-814.95 4430.39,-696.61"/>
<polygon fill="black" stroke="black" points="4433.89,-696.82 4430.55,-686.76 4426.89,-696.7 4433.89,-696.82"/>
<text xml:space="preserve" text-anchor="middle" x="4299.76" y="-1377.63" font-family="Times,serif" font-size="14.00">OTHER</text>
</g>
<!-- iover -->
<g id="node35" class="node">
<title>iover</title>
<ellipse fill="none" stroke="black" cx="4299.76" cy="-1292.55" rx="30.88" ry="30.88"/>
<text xml:space="preserve" text-anchor="middle" x="4299.76" y="-1288.35" font-family="Times,serif" font-size="14.00">iover</text>
</g>
<!-- i31&#45;&gt;iover -->
<g id="edge34" class="edge">
<title>i31-&gt;iover</title>
<path fill="none" stroke="black" d="M4186.63,-1292.55C4206.64,-1292.55 4234.36,-1292.55 4257.23,-1292.55"/>
<polygon fill="black" stroke="black" points="4257.17,-1296.05 4267.17,-1292.55 4257.17,-1289.05 4257.17,-1296.05"/>
<text xml:space="preserve" text-anchor="middle" x="4227.55" y="-1296.75" font-family="Times,serif" font-size="14.00">BODY</text>
</g>
<!-- id&#45;&gt;id -->
<g id="edge68" class="edge">
<title>id-&gt;id</title>
<path fill="none" stroke="black" d="M4421.61,-682.33C4418.73,-692.85 4422.14,-703.1 4431.85,-703.1 4437.92,-703.1 4441.52,-699.09 4442.67,-693.52"/>
<polygon fill="black" stroke="black" points="4446.19,-693.64 4442.17,-683.84 4439.19,-694.01 4446.19,-693.64"/>
<text xml:space="preserve" text-anchor="middle" x="4431.85" y="-707.3" font-family="Times,serif" font-size="14.00">ANY</text>
</g>
<!-- iover&#45;&gt;id -->
<g id="edge67" class="edge">
<title>iover-&gt;id</title>
<path fill="none" stroke="black" d="M4330.35,-1286.83C4352.18,-1280.93 4380.55,-1269.39 4395.3,-1247.55 4426.23,-1201.73 4430.26,-809.83 4430.78,-696.89"/>
<polygon fill="black" stroke="black" points="4434.28,-696.92 4430.81,-686.91 4427.28,-696.9 4434.28,-696.92"/>
<text xml:space="preserve" text-anchor="middle" x="4371.97" y="-1284.25" font-family="Times,serif" font-size="14.00">OTHER</text>
</g>
<!-- iover&#45;&gt;iover -->
<g id="edge66" class="edge">
<title>iover-&gt;iover</title>
<path fill="none" stroke="black" d="M4286.3,-1320.68C4285.54,-1331.96 4290.03,-1341.43 4299.76,-1341.43 4306,-1341.43 4310.08,-1337.54 4312.01,-1331.78"/>
<polygon fill="black" stroke="black" points="4315.45,-1332.5 4313.05,-1322.18 4308.49,-1331.74 4315.45,-1332.5"/>
<text xml:space="preserve" text-anchor="middle" x="4299.76" y="-1345.63" font-family="Times,serif" font-size="14.00">BODY</text>
</g>
</g>
</svg>