<svg xmlns="http://www.w3.org/2000/svg" xmlns:xlink="http://www.w3.org/1999/xlink" width="4046pt" height="63pt" viewBox="0.00 0.00 4046.00 63.00">
<g id="graph0" class="graph" transform="scale(1 1) rotate(0) translate(4 58.75)">
<title>IdentNFA</title>
<polygon fill="white" stroke="none" points="-4,4 -4,-58.75 4041.76,-58.75 4041.76,4 -4,4"/>
<!-- start -->
<g id="node1" class="node">
<title>start</title>
<ellipse fill="black" stroke="black" cx="1.8" cy="-27.38" rx="1.8" ry="1.8"/>
</g>
<!-- i0 -->
<g id="node2" class="node">
<title>i0</title>
<ellipse fill="none" stroke="black" cx="59.15" cy="-27.38" rx="18.55" ry="18.55"/>
<text xml:space="preserve" text-anchor="middle" x="59.15" y="-23.18" font-family="Times,serif" font-size="14.00">i0</text>
</g>
<!-- start&#45;&gt;i0 -->
<g id="edge1" class="edge">
<title>start-&gt;i0</title>
<path fill="none" stroke="black" d="M3.76,-27.38C6.96,-27.38 17.66,-27.38 28.73,-27.38"/>
<polygon fill="black" stroke="black" points="28.6,-30.88 38.6,-27.38 28.6,-23.88 28.6,-30.88"/>
</g>
<!-- i1 -->
<g id="node3" class="node">
<title>i1</title>
<ellipse fill="none" stroke="black" cx="179.82" cy="-27.38" rx="18.55" ry="18.55"/>
<ellipse fill="none" stroke="black" cx="179.82" cy="-27.38" rx="22.55" ry="22.55"/>
<text xml:space="preserve" text-anchor="middle" x="179.82" y="-23.18" font-family="Times,serif" font-size="14.00">i1</text>
</g>
<!-- i0&#45;&gt;i1 -->
<g id="edge2" class="edge">
<title>i0-&gt;i1</title>
<path fill="none" stroke="black" d="M78.17,-27.38C96.01,-27.38 123.73,-27.38 145.56,-27.38"/>
<polygon fill="black" stroke="black" points="145.47,-30.88 155.47,-27.38 145.47,-23.88 145.47,-30.88"/>
<text xml:space="preserve" text-anchor="middle" x="117.48" y="-31.58" font-family="Times,serif" font-size="14.00">UPPER</text>
</g>
<!-- i2 -->
<g id="node4" class="node">
<title>i2</title>
<ellipse fill="none" stroke="black" cx="300.58" cy="-27.38" rx="18.55" ry="18.55"/>
<ellipse fill="none" stroke="black" cx="300.58" cy="-27.38" rx="22.55" ry="22.55"/>
<text xml:space="preserve" text-anchor="middle" x="300.58" y="-23.18" font-family="Times,serif" font-size="14.00">i2</text>
</g>
<!-- i1&#45;&gt;i2 -->
<g id="edge3" class="edge">
<title>i1-&gt;i2</title>
<path fill="none" stroke="black" d="M202.6,-27.38C220.4,-27.38 245.86,-27.38 266.23,-27.38"/>
<polygon fill="black" stroke="black" points="266.02,-30.88 276.02,-27.38 266.02,-23.88 266.02,-30.88"/>
<text xml:space="preserve" text-anchor="middle" x="240.2" y="-31.58" font-family="Times,serif" font-size="14.00">BODY</text>
</g>
<!-- i3 -->
<g id="node5" class="node">
<title>i3</title>
<ellipse fill="none" stroke="black" cx="421.35" cy="-27.38" rx="18.55" ry="18.55"/>
<ellipse fill="none" stroke="black" cx="421.35" cy="-27.38" rx="22.55" ry="22.55"/>
<text xml:space="preserve" text-anchor="middle" x="421.35" y="-23.18" font-family="Times,serif" font-size="14.00">i3</text>
</g>
<!-- i2&#45;&gt;i3 -->
<g id="edge4" class="edge">
<title>i2-&gt;i3</title>
<path fill="none" stroke="black" d="M323.36,-27.38C341.17,-27.38 366.63,-27.38 386.99,-27.38"/>
<polygon fill="black" stroke="black" points="386.79,-30.88 396.79,-27.38 386.79,-23.88 386.79,-30.88"/>
<text xml:space="preserve" text-anchor="middle" x="360.96" y="-31.58" font-family="Times,serif" font-size="14.00">BODY</text>
</g>
<!-- i4 -->
<g id="node6" class="node">
<title>i4</title>
<ellipse fill="none" stroke="black" cx="542.11" cy="-27.38" rx="18.55" ry="18.55"/>
<ellipse fill="none" stroke="black" cx="542.11" cy="-27.38" rx="22.55" ry="22.55"/>
<text xml:space="preserve" text-anchor="middle" x="542.11" y="-23.18" font-family="Times,serif" font-size="14.00">i4</text>
</g>
<!-- i3&#45;&gt;i4 -->
<g id="edge5" class="edge">
<title>i3-&gt;i4</title>
<path fill="none" stroke="black" d="M444.13,-27.38C461.93,-27.38 487.39,-27.38 507.76,-27.38"/>
<polygon fill="black" stroke="black" points="507.55,-30.88 517.55,-27.38 507.55,-23.88 507.55,-30.88"/>
<text xml:space="preserve" text-anchor="middle" x="481.73" y="-31.58" font-family="Times,serif" font-size="14.00">BODY</text>
</g>
<!-- i5 -->
<g id="node7" class="node">
<title>i5</title>
<ellipse fill="none" stroke="black" cx="662.88" cy="-27.38" rx="18.55" ry="18.55"/>
<ellipse fill="none" stroke="black" cx="662.88" cy="-27.38" rx="22.55" ry="22.55"/>
<text xml:space="preserve" text-anchor="middle" x="662.88" y="-23.18" font-family="Times,serif" font-size="14.00">i5</text>
</g>
<!-- i4&#45;&gt;i5 -->
<g id="edge6" class="edge">
<title>i4-&gt;i5</title>
<path fill="none" stroke="black" d="M564.89,-27.38C582.7,-27.38 608.16,-27.38 628.52,-27.38"/>
<polygon fill="black" stroke="black" points="628.31,-30.88 638.31,-27.38 628.31,-23.88 628.31,-30.88"/>
<text xml:space="preserve" text-anchor="middle" x="602.49" y="-31.58" font-family="Times,serif" font-size="14.00">BODY</text>
</g>
<!-- i6 -->
<g id="node8" class="node">
<title>i6</title>
<ellipse fill="none" stroke="black" cx="783.64" cy="-27.38" rx="18.55" ry="18.55"/>
<ellipse fill="none" stroke="black" cx="783.64" cy="-27.38" rx="22.55" ry="22.55"/>
<text xml:space="preserve" text-anchor="middle" x="783.64" y="-23.18" font-family="Times,serif" font-size="14.00">i6</text>
</g>
<!-- i5&#45;&gt;i6 -->
<g id="edge7" class="edge">
<title>i5-&gt;i6</title>
<path fill="none" stroke="black" d="M685.66,-27.38C703.46,-27.38 728.92,-27.38 749.29,-27.38"/>
<polygon fill="black" stroke="black" points="749.08,-30.88 759.08,-27.38 749.08,-23.88 749.08,-30.88"/>
<text xml:space="preserve" text-anchor="middle" x="723.26" y="-31.58" font-family="Times,serif" font-size="14.00">BODY</text>
</g>
<!-- i7 -->
<g id="node9" class="node">
<title>i7</title>
<ellipse fill="none" stroke="black" cx="904.41" cy="-27.38" rx="18.55" ry="18.55"/>
<ellipse fill="none" stroke="black" cx="904.41" cy="-27.38" rx="22.55" ry="22.55"/>
<text xml:space="preserve" text-anchor="middle" x="904.41" y="-23.18" font-family="Times,serif" font-size="14.00">i7</text>
</g>
<!-- i6&#45;&gt;i7 -->
<g id="edge8" class="edge">
<title>i6-&gt;i7</title>
<path fill="none" stroke="black" d="M806.42,-27.38C824.23,-27.38 849.68,-27.38 870.05,-27.38"/>
<polygon fill="black" stroke="black" points="869.84,-30.88 879.84,-27.38 869.84,-23.88 869.84,-30.88"/>
<text xml:space="preserve" text-anchor="middle" x="844.02" y="-31.58" font-family="Times,serif" font-size="14.00">BODY</text>
</g>
<!-- i8 -->
<g id="node10" class="node">
<title>i8</title>
<ellipse fill="none" stroke="black" cx="1025.17" cy="-27.38" rx="18.55" ry="18.55"/>
<ellipse fill="none" stroke="black" cx="1025.17" cy="-27.38" rx="22.55" ry="22.55"/>
<text xml:space="preserve" text-anchor="middle" x="1025.17" y="-23.18" font-family="Times,serif" font-size="14.00">i8</text>
</g>
<!-- i7&#45;&gt;i8 -->
<g id="edge9" class="edge">
<title>i7-&gt;i8</title>
<path fill="none" stroke="black" d="M927.19,-27.38C944.99,-27.38 970.45,-27.38 990.82,-27.38"/>
<polygon fill="black" stroke="black" points="990.61,-30.88 1000.61,-27.38 990.61,-23.88 990.61,-30.88"/>
<text xml:space="preserve" text-anchor="middle" x="964.79" y="-31.58" font-family="Times,serif" font-size="14.00">BODY</text>
</g>
<!-- i9 -->
<g id="node11" class="node">
<title>i9</title>
<ellipse fill="none" stroke="black" cx="1145.94" cy="-27.38" rx="18.55" ry="18.55"/>
<ellipse fill="none" stroke="black" cx="1145.94" cy="-27.38" rx="22.55" ry="22.55"/>
<text xml:space="preserve" text-anchor="middle" x="1145.94" y="-23.18" font-family="Times,serif" font-size="14.00">i9</text>
</g>
<!-- i8&#45;&gt;i9 -->
<g id="edge10" class="edge">
<title>i8-&gt;i9</title>
<path fill="none" stroke="black" d="M1047.95,-27.38C1065.76,-27.38 1091.21,-27.38 1111.58,-27.38"/>
<polygon fill="black" stroke="black" points="1111.37,-30.88 1121.37,-27.38 1111.37,-23.88 1111.37,-30.88"/>
<text xml:space="preserve" text-anchor="middle" x="1085.55" y="-31.58" font-family="Times,serif" font-size="14.00">BODY</text>
</g>
<!-- i10 -->
<g id="node12" class="node">
<title>i10</title>
<ellipse fill="none" stroke="black" cx="1271.53" cy="-27.38" rx="23.38" ry="23.38"/>
<ellipse fill="none" stroke="black" cx="1271.53" cy="-27.38" rx="27.38" ry="27.38"/>
<text xml:space="preserve" text-anchor="middle" x="1271.53" y="-23.18" font-family="Times,serif" font-size="14.00">i10</text>
</g>
<!-- i9&#45;&gt;i10 -->
<g id="edge11" class="edge">
<title>i9-&gt;i10</title>
<path fill="none" stroke="black" d="M1168.75,-27.38C1186.32,-27.38 1211.46,-27.38 1232.36,-27.38"/>
<polygon fill="black" stroke="black" points="1232.26,-30.88 1242.26,-27.38 1232.26,-23.88 1232.26,-30.88"/>
<text xml:space="preserve" text-anchor="middle" x="1206.32" y="-31.58" font-family="Times,serif" font-size="14.00">BODY</text>
</g>
<!-- i11 -->
<g id="node13" class="node">
<title>i11</title>
<ellipse fill="none" stroke="black" cx="1401.95" cy="-27.38" rx="23.38" ry="23.38"/>
<ellipse fill="none" stroke="black" cx="1401.95" cy="-27.38" rx="27.38" ry="27.38"/>
<text xml:space="preserve" text-anchor="middle" x="1401.95" y="-23.18" font-family="Times,serif" font-size="14.00">i11</text>
</g>
<!-- i10&#45;&gt;i11 -->
<g id="edge12" class="edge">
<title>i10-&gt;i11</title>
<path fill="none" stroke="black" d="M1299.14,-27.38C1317.56,-27.38 1342.36,-27.38 1362.88,-27.38"/>
<polygon fill="black" stroke="black" points="1362.86,-30.88 1372.86,-27.38 1362.86,-23.88 1362.86,-30.88"/>
<text xml:space="preserve" text-anchor="middle" x="1336.74" y="-31.58" font-family="Times,serif" font-size="14.00">BODY</text>
</g>
<!-- i12 -->
<g id="node14" class="node">
<title>i12</title>
<ellipse fill="none" stroke="black" cx="1532.37" cy="-27.38" rx="23.38" ry="23.38"/>
<ellipse fill="none" stroke="black" cx="1532.37" cy="-27.38" rx="27.38" ry="27.38"/>
<text xml:space="preserve" text-anchor="middle" x="1532.37" y="-23.18" font-family="Times,serif" font-size="14.00">i12</text>
</g>
<!-- i11&#45;&gt;i12 -->
<g id="edge13" class="edge">
<title>i11-&gt;i12</title>
<path fill="none" stroke="black" d="M1429.56,-27.38C1447.98,-27.38 1472.79,-27.38 1493.3,-27.38"/>
<polygon fill="black" stroke="black" points="1493.28,-30.88 1503.28,-27.38 1493.28,-23.88 1493.28,-30.88"/>
<text xml:space="preserve" text-anchor="middle" x="1467.16" y="-31.58" font-family="Times,serif" font-size="14.00">BODY</text>
</g>
<!-- i13 -->
<g id="node15" class="node">
<title>i13</title>
<ellipse fill="none" stroke="black" cx="1662.79" cy="-27.38" rx="23.38" ry="23.38"/>
<ellipse fill="none" stroke="black" cx="1662.79" cy="-27.38" rx="27.38" ry="27.38"/>
<text xml:space="preserve" text-anchor="middle" x="1662.79" y="-23.18" font-family="Times,serif" font-size="14.00">i13</text>
</g>
<!-- i12&#45;&gt;i13 -->
<g id="edge14" class="edge">
<title>i12-&gt;i13</title>
<path fill="none" stroke="black" d="M1559.98,-27.38C1578.41,-27.38 1603.21,-27.38 1623.72,-27.38"/>
<polygon fill="black" stroke="black" points="1623.71,-30.88 1633.71,-27.38 1623.71,-23.88 1623.71,-30.88"/>
<text xml:space="preserve" text-anchor="middle" x="1597.58" y="-31.58" font-family="Times,serif" font-size="14.00">BODY</text>
</g>
<!-- i14 -->
<g id="node16" class="node">
<title>i14</title>
<ellipse fill="none" stroke="black" cx="1793.22" cy="-27.38" rx="23.38" ry="23.38"/>
<ellipse fill="none" stroke="black" cx="1793.22" cy="-27.38" rx="27.38" ry="27.38"/>
<text xml:space="preserve" text-anchor="middle" x="1793.22" y="-23.18" font-family="Times,serif" font-size="14.00">i14</text>
</g>
<!-- i13&#45;&gt;i14 -->
<g id="edge15" class="edge">
<title>i13-&gt;i14</title>
<path fill="none" stroke="black" d="M1690.4,-27.38C1708.83,-27.38 1733.63,-27.38 1754.14,-27.38"/>
<polygon fill="black" stroke="black" points="1754.13,-30.88 1764.13,-27.38 1754.13,-23.88 1754.13,-30.88"/>
<text xml:space="preserve" text-anchor="middle" x="1728.01" y="-31.58" font-family="Times,serif" font-size="14.00">BODY</text>
</g>
<!-- i15 -->
<g id="node17" class="node">
<title>i15</title>
<ellipse fill="none" stroke="black" cx="1923.64" cy="-27.38" rx="23.38" ry="23.38"/>
<ellipse fill="none" stroke="black" cx="1923.64" cy="-27.38" rx="27.38" ry="27.38"/>
<text xml:space="preserve" text-anchor="middle" x="1923.64" y="-23.18" font-family="Times,serif" font-size="14.00">i15</text>
</g>
<!-- i14&#45;&gt;i15 -->
<g id="edge16" class="edge">
<title>i14-&gt;i15</title>
<path fill="none" stroke="black" d="M1820.83,-27.38C1839.25,-27.38 1864.05,-27.38 1884.56,-27.38"/>
<polygon fill="black" stroke="black" points="1884.55,-30.88 1894.55,-27.38 1884.55,-23.88 1884.55,-30.88"/>
<text xml:space="preserve" text-anchor="middle" x="1858.43" y="-31.58" font-family="Times,serif" font-size="14.00">BODY</text>
</g>
<!-- i16 -->
<g id="node18" class="node">
<title>i16</title>
<ellipse fill="none" stroke="black" cx="2054.06" cy="-27.38" rx="23.38" ry="23.38"/>
<ellipse fill="none" stroke="black" cx="2054.06" cy="-27.38" rx="27.38" ry="27.38"/>
<text xml:space="preserve" text-anchor="middle" x="2054.06" y="-23.18" font-family="Times,serif" font-size="14.00">i16</text>
</g>
<!-- i15&#45;&gt;i16 -->
<g id="edge17" class="edge">
<title>i15-&gt;i16</title>
<path fill="none" stroke="black" d="M1951.25,-27.38C1969.67,-27.38 1994.47,-27.38 2014.98,-27.38"/>
<polygon fill="black" stroke="black" points="2014.97,-30.88 2024.97,-27.38 2014.97,-23.88 2014.97,-30.88"/>
<text xml:space="preserve" text-anchor="middle" x="1988.85" y="-31.58" font-family="Times,serif" font-size="14.00">BODY</text>
</g>
<!-- i17 -->
<g id="node19" class="node">
<title>i17</title>
<ellipse fill="none" stroke="black" cx="2184.48" cy="-27.38" rx="23.38" ry="23.38"/>
<ellipse fill="none" stroke="black" cx="2184.48" cy="-27.38" rx="27.38" ry="27.38"/>
<text xml:space="preserve" text-anchor="middle" x="2184.48" y="-23.18" font-family="Times,serif" font-size="14.00">i17</text>
</g>
<!-- i16&#45;&gt;i17 -->
<g id="edge18" class="edge">
<title>i16-&gt;i17</title>
<path fill="none" stroke="black" d="M2081.67,-27.38C2100.09,-27.38 2124.9,-27.38 2145.41,-27.38"/>
<polygon fill="black" stroke="black" points="2145.39,-30.88 2155.39,-27.38 2145.39,-23.88 2145.39,-30.88"/>
<text xml:space="preserve" text-anchor="middle" x="2119.27" y="-31.58" font-family="Times,serif" font-size="14.00">BODY</text>
</g>
<!-- i18 -->
<g id="node20" class="node">
<title>i18</title>
<ellipse fill="none" stroke="black" cx="2314.9" cy="-27.38" rx="23.38" ry="23.38"/>
<ellipse fill="none" stroke="black" cx="2314.9" cy="-27.38" rx="27.38" ry="27.38"/>
<text xml:space="preserve" text-anchor="middle" x="2314.9" y="-23.18" font-family="Times,serif" font-size="14.00">i18</text>
</g>
<!-- i17&#45;&gt;i18 -->
<g id="edge19" class="edge">
<title>i17-&gt;i18</title>
<path fill="none" stroke="black" d="M2212.09,-27.38C2230.52,-27.38 2255.32,-27.38 2275.83,-27.38"/>
<polygon fill="black" stroke="black" points="2275.82,-30.88 2285.82,-27.38 2275.82,-23.88 2275.82,-30.88"/>
<text xml:space="preserve" text-anchor="middle" x="2249.69" y="-31.58" font-family="Times,serif" font-size="14.00">BODY</text>
</g>
<!-- i19 -->
<g id="node21" class="node">
<title>i19</title>
<ellipse fill="none" stroke="black" cx="2445.33" cy="-27.38" rx="23.38" ry="23.38"/>
<ellipse fill="none" stroke="black" cx="2445.33" cy="-27.38" rx="27.38" ry="27.38"/>
<text xml:space="preserve" text-anchor="middle" x="2445.33" y="-23.18" font-family="Times,serif" font-size="14.00">i19</text>
</g>
<!-- i18&#45;&gt;i19 -->
<g id="edge20" class="edge">
<title>i18-&gt;i19</title>
<path fill="none" stroke="black" d="M2342.51,-27.38C2360.94,-27.38 2385.74,-27.38 2406.25,-27.38"/>
<polygon fill="black" stroke="black" points="2406.24,-30.88 2416.24,-27.38 2406.24,-23.88 2406.24,-30.88"/>
<text xml:space="preserve" text-anchor="middle" x="2380.11" y="-31.58" font-family="Times,serif" font-size="14.00">BODY</text>
</g>
<!-- i20 -->
<g id="node22" class="node">
<title>i20</title>
<ellipse fill="none" stroke="black" cx="2575.75" cy="-27.38" rx="23.38" ry="23.38"/>
<ellipse fill="none" stroke="black" cx="2575.75" cy="-27.38" rx="27.38" ry="27.38"/>
<text xml:space="preserve" text-anchor="middle" x="2575.75" y="-23.18" font-family="Times,serif" font-size="14.00">i20</text>
</g>
<!-- i19&#45;&gt;i20 -->
<g id="edge21" class="edge">
<title>i19-&gt;i20</title>
<path fill="none" stroke="black" d="M2472.93,-27.38C2491.36,-27.38 2516.16,-27.38 2536.67,-27.38"/>
<polygon fill="black" stroke="black" points="2536.66,-30.88 2546.66,-27.38 2536.66,-23.88 2536.66,-30.88"/>
<text xml:space="preserve" text-anchor="middle" x="2510.54" y="-31.58" font-family="Times,serif" font-size="14.00">BODY</text>
</g>
<!-- i21 -->
<g id="node23" class="node">
<title>i21</title>
<ellipse fill="none" stroke="black" cx="2706.17" cy="-27.38" rx="23.38" ry="23.38"/>
<ellipse fill="none" stroke="black" cx="2706.17" cy="-27.38" rx="27.38" ry="27.38"/>
<text xml:space="preserve" text-anchor="middle" x="2706.17" y="-23.18" font-family="Times,serif" font-size="14.00">i21</text>
</g>
<!-- i20&#45;&gt;i21 -->
<g id="edge22" class="edge">
<title>i20-&gt;i21</title>
<path fill="none" stroke="black" d="M2603.36,-27.38C2621.78,-27.38 2646.58,-27.38 2667.09,-27.38"/>
<polygon fill="black" stroke="black" points="2667.08,-30.88 2677.08,-27.38 2667.08,-23.88 2667.08,-30.88"/>
<text xml:space="preserve" text-anchor="middle" x="2640.96" y="-31.58" font-family="Times,serif" font-size="14.00">BODY</text>
</g>
<!-- i22 -->
<g id="node24" class="node">
<title>i22</title>
<ellipse fill="none" stroke="black" cx="2836.59" cy="-27.38" rx="23.38" ry="23.38"/>
<ellipse fill="none" stroke="black" cx="2836.59" cy="-27.38" rx="27.38" ry="27.38"/>
<text xml:space="preserve" text-anchor="middle" x="2836.59" y="-23.18" font-family="Times,serif" font-size="14.00">i22</text>
</g>
<!-- i21&#45;&gt;i22 -->
<g id="edge23" class="edge">
<title>i21-&gt;i22</title>
<path fill="none" stroke="black" d="M2733.78,-27.38C2752.2,-27.38 2777,-27.38 2797.52,-27.38"/>
<polygon fill="black" stroke="black" points="2797.5,-30.88 2807.5,-27.38 2797.5,-23.88 2797.5,-30.88"/>
<text xml:space="preserve" text-anchor="middle" x="2771.38" y="-31.58" font-family="Times,serif" font-size="14.00">BODY</text>
</g>
<!-- i23 -->
<g id="node25" class="node">
<title>i23</title>
<ellipse fill="none" stroke="black" cx="2967.01" cy="-27.38" rx="23.38" ry="23.38"/>
<ellipse fill="none" stroke="black" cx="2967.01" cy="-27.38" rx="27.38" ry="27.38"/>
<text xml:space="preserve" text-anchor="middle" x="2967.01" y="-23.18" font-family="Times,serif" font-size="14.00">i23</text>
</g>
<!-- i22&#45;&gt;i23 -->
<g id="edge24" class="edge">
<title>i22-&gt;i23</title>
<path fill="none" stroke="black" d="M2864.2,-27.38C2882.62,-27.38 2907.43,-27.38 2927.94,-27.38"/>
<polygon fill="black" stroke="black" points="2927.92,-30.88 2937.92,-27.38 2927.92,-23.88 2927.92,-30.88"/>
<text xml:space="preserve" text-anchor="middle" x="2901.8" y="-31.58" font-family="Times,serif" font-size="14.00">BODY</text>
</g>
<!-- i24 -->
<g id="node26" class="node">
<title>i24</title>
<ellipse fill="none" stroke="black" cx="3097.44" cy="-27.38" rx="23.38" ry="23.38"/>
<ellipse fill="none" stroke="black" cx="3097.44" cy="-27.38" rx="27.38" ry="27.38"/>
<text xml:space="preserve" text-anchor="middle" x="3097.44" y="-23.18" font-family="Times,serif" font-size="14.00">i24</text>
</g>
<!-- i23&#45;&gt;i24 -->
<g id="edge25" class="edge">
<title>i23-&gt;i24</title>
<path fill="none" stroke="black" d="M2994.62,-27.38C3013.05,-27.38 3037.85,-27.38 3058.36,-27.38"/>
<polygon fill="black" stroke="black" points="3058.35,-30.88 3068.35,-27.38 3058.35,-23.88 3058.35,-30.88"/>
<text xml:space="preserve" text-anchor="middle" x="3032.22" y="-31.58" font-family="Times,serif" font-size="14.00">BODY</text>
</g>
<!-- i25 -->
<g id="node27" class="node">
<title>i25</title>
<ellipse fill="none" stroke="black" cx="3227.86" cy="-27.38" rx="23.38" ry="23.38"/>
<ellipse fill="none" stroke="black" cx="3227.86" cy="-27.38" rx="27.38" ry="27.38"/>
<text xml:space="preserve" text-anchor="middle" x="3227.86" y="-23.18" font-family="Times,serif" font-size="14.00">i25</text>
</g>
<!-- i24&#45;&gt;i25 -->
<g id="edge26" class="edge">
<title>i24-&gt;i25</title>
<path fill="none" stroke="black" d="M3125.04,-27.38C3143.47,-27.38 3168.27,-27.38 3188.78,-27.38"/>
<polygon fill="black" stroke="black" points="3188.77,-30.88 3198.77,-27.38 3188.77,-23.88 3188.77,-30.88"/>
<text xml:space="preserve" text-anchor="middle" x="3162.65" y="-31.58" font-family="Times,serif" font-size="14.00">BODY</text>
</g>
<!-- i26 -->
<g id="node28" class="node">
<title>i26</title>
<ellipse fill="none" stroke="black" cx="3358.28" cy="-27.38" rx="23.38" ry="23.38"/>
<ellipse fill="none" stroke="black" cx="3358.28" cy="-27.38" rx="27.38" ry="27.38"/>
<text xml:space="preserve" text-anchor="middle" x="3358.28" y="-23.18" font-family="Times,serif" font-size="14.00">i26</text>
</g>
<!-- i25&#45;&gt;i26 -->
<g id="edge27" class="edge">
<title>i25-&gt;i26</title>
<path fill="none" stroke="black" d="M3255.47,-27.38C3273.89,-27.38 3298.69,-27.38 3319.2,-27.38"/>
<polygon fill="black" stroke="black" points="3319.19,-30.88 3329.19,-27.38 3319.19,-23.88 3319.19,-30.88"/>
<text xml:space="preserve" text-anchor="middle" x="3293.07" y="-31.58" font-family="Times,serif" font-size="14.00">BODY</text>
</g>
<!-- i27 -->
<g id="node29" class="node">
<title>i27</title>
<ellipse fill="none" stroke="black" cx="3488.7" cy="-27.38" rx="23.38" ry="23.38"/>
<ellipse fill="none" stroke="black" cx="3488.7" cy="-27.38" rx="27.38" ry="27.38"/>
<text xml:space="preserve" text-anchor="middle" x="3488.7" y="-23.18" font-family="Times,serif" font-size="14.00">i27</text>
</g>
<!-- i26&#45;&gt;i27 -->
<g id="edge28" class="edge">
<title>i26-&gt;i27</title>
<path fill="none" stroke="black" d="M3385.89,-27.38C3404.31,-27.38 3429.11,-27.38 3449.63,-27.38"/>
<polygon fill="black" stroke="black" points="3449.61,-30.88 3459.61,-27.38 3449.61,-23.88 3449.61,-30.88"/>
<text xml:space="preserve" text-anchor="middle" x="3423.49" y="-31.58" font-family="Times,serif" font-size="14.00">BODY</text>
</g>
<!-- i28 -->
<g id="node30" class="node">
<title>i28</title>
<ellipse fill="none" stroke="black" cx="3619.12" cy="-27.38" rx="23.38" ry="23.38"/>
<ellipse fill="none" stroke="black" cx="3619.12" cy="-27.38" rx="27.38" ry="27.38"/>
<text xml:space="preserve" text-anchor="middle" x="3619.12" y="-23.18" font-family="Times,serif" font-size="14.00">i28</text>
</g>
<!-- i27&#45;&gt;i28 -->
<g id="edge29" class="edge">
<title>i27-&gt;i28</title>
<path fill="none" stroke="black" d="M3516.31,-27.38C3534.73,-27.38 3559.54,-27.38 3580.05,-27.38"/>
<polygon fill="black" stroke="black" points="3580.03,-30.88 3590.03,-27.38 3580.03,-23.88 3580.03,-30.88"/>
<text xml:space="preserve" text-anchor="middle" x="3553.91" y="-31.58" font-family="Times,serif" font-size="14.00">BODY</text>
</g>
<!-- i29 -->
<g id="node31" class="node">
<title>i29</title>
<ellipse fill="none" stroke="black" cx="3749.54" cy="-27.38" rx="23.38" ry="23.38"/>
<ellipse fill="none" stroke="black" cx="3749.54" cy="-27.38" rx="27.38" ry="27.38"/>
<text xml:space="preserve" text-anchor="middle" x="3749.54" y="-23.18" font-family="Times,serif" font-size="14.00">i29</text>
</g>
<!-- i28&#45;&gt;i29 -->
<g id="edge30" class="edge">
<title>i28-&gt;i29</title>
<path fill="none" stroke="black" d="M3646.73,-27.38C3665.16,-27.38 3689.96,-27.38 3710.47,-27.38"/>
<polygon fill="black" stroke="black" points="3710.46,-30.88 3720.46,-27.38 3710.46,-23.88 3710.46,-30.88"/>
<text xml:space="preserve" text-anchor="middle" x="3684.33" y="-31.58" font-family="Times,serif" font-size="14.00">BODY</text>
</g>
<!-- i30 -->
<g id="node32" class="node">
<title>i30</title>
<ellipse fill="none" stroke="black" cx="3879.97" cy="-27.38" rx="23.38" ry="23.38"/>
<ellipse fill="none" stroke="black" cx="3879.97" cy="-27.38" rx="27.38" ry="27.38"/>
<text xml:space="preserve" text-anchor="middle" x="3879.97" y="-23.18" font-family="Times,serif" font-size="14.00">i30</text>
</g>
<!-- i29&#45;&gt;i30 -->
<g id="edge31" class="edge">
<title>i29-&gt;i30</title>
<path fill="none" stroke="black" d="M3777.15,-27.38C3795.58,-27.38 3820.38,-27.38 3840.89,-27.38"/>
<polygon fill="black" stroke="black" points="3840.88,-30.88 3850.88,-27.38 3840.88,-23.88 3840.88,-30.88"/>
<text xml:space="preserve" text-anchor="middle" x="3814.76" y="-31.58" font-family="Times,serif" font-size="14.00">BODY</text>
</g>
<!-- i31 -->
<g id="node33" class="node">
<title>i31</title>
<ellipse fill="none" stroke="black" cx="4010.39" cy="-27.38" rx="23.38" ry="23.38"/>
<ellipse fill="none" stroke="black" cx="4010.39" cy="-27.38" rx="27.38" ry="27.38"/>
<text xml:space="preserve" text-anchor="middle" x="4010.39" y="-23.18" font-family="Times,serif" font-size="14.00">i31</text>
</g>
<!-- i30&#45;&gt;i31 -->
<g id="edge32" class="edge">
<title>i30-&gt;i31</title>
<path fill="none" stroke="black" d="M3907.58,-27.38C3926,-27.38 3950.8,-27.38 3971.31,-27.38"/>
<polygon fill="black" stroke="black" points="3971.3,-30.88 3981.3,-27.38 3971.3,-23.88 3971.3,-30.88"/>
<text xml:space="preserve" text-anchor="middle" x="3945.18" y="-31.58" font-family="Times,serif" font-size="14.00">BODY</text>
</g>
</g>
</svg>