<svg xmlns="http://www.w3.org/2000/svg" xmlns:xlink="http://www.w3.org/1999/xlink" width="456pt" height="157pt" viewBox="0.00 0.00 456.00 157.00">
<g id="graph0" class="graph" transform="scale(1 1) rotate(0) translate(4 152.64)">
<title>IntDFA</title>
<polygon fill="white" stroke="none" points="-4,4 -4,-152.64 452.14,-152.64 452.14,4 -4,4"/>
<!-- start -->
<g id="node1" class="node">
<title>start</title>
<ellipse fill="black" stroke="black" cx="1.8" cy="-35.14" rx="1.8" ry="1.8"/>
</g>
<!-- q0 -->
<g id="node2" class="node">
<title>q0</title>
<ellipse fill="none" stroke="black" cx="61.29" cy="-35.14" rx="20.69" ry="20.69"/>
<text xml:space="preserve" text-anchor="middle" x="61.29" y="-30.94" font-family="Times,serif" font-size="14.00">q0</text>
</g>
<!-- start&#45;&gt;q0 -->
<g id="edge1" class="edge">
<title>start-&gt;q0</title>
<path fill="none" stroke="black" d="M3.8,-35.14C7.06,-35.14 17.87,-35.14 29.17,-35.14"/>
<polygon fill="black" stroke="black" points="28.86,-38.64 38.86,-35.14 28.86,-31.64 28.86,-38.64"/>
</g>
<!-- q2 -->
<g id="node3" class="node">
<title>q2</title>
<ellipse fill="none" stroke="black" cx="299.4" cy="-89.14" rx="20.69" ry="20.69"/>
<ellipse fill="none" stroke="black" cx="299.4" cy="-89.14" rx="24.69" ry="24.69"/>
<text xml:space="preserve" text-anchor="middle" x="299.4" y="-84.94" font-family="Times,serif" font-size="14.00">q2</text>
</g>
<!-- q0&#45;&gt;q2 -->
<g id="edge3" class="edge">
<title>q0-&gt;q2</title>
<path fill="none" stroke="black" d="M79.43,-46.05C85.71,-49.67 92.99,-53.46 99.99,-56.14 154.48,-77.02 222.37,-84.7 262.96,-87.52"/>
<polygon fill="black" stroke="black" points="262.67,-91.01 272.87,-88.14 263.11,-84.02 262.67,-91.01"/>
<text xml:space="preserve" text-anchor="middle" x="171.35" y="-83.59" font-family="Times,serif" font-size="14.00">DIGIT</text>
</g>
<!-- q1 -->
<g id="node4" class="node">
<title>q1</title>
<ellipse fill="none" stroke="black" cx="171.35" cy="-35.14" rx="20.69" ry="20.69"/>
<text xml:space="preserve" text-anchor="middle" x="171.35" y="-30.94" font-family="Times,serif" font-size="14.00">q1</text>
</g>
<!-- q0&#45;&gt;q1 -->
<g id="edge2" class="edge">
<title>q0-&gt;q1</title>
<path fill="none" stroke="black" d="M82.36,-35.14C98.29,-35.14 120.82,-35.14 139.1,-35.14"/>
<polygon fill="black" stroke="black" points="138.87,-38.64 148.87,-35.14 138.87,-31.64 138.87,-38.64"/>
<text xml:space="preserve" text-anchor="middle" x="116.32" y="-39.34" font-family="Times,serif" font-size="14.00">SIGN</text>
</g>
<!-- qd -->
<g id="node5" class="node">
<title>qd</title>
<ellipse fill="none" stroke="black" cx="427.45" cy="-30.14" rx="20.69" ry="20.69"/>
<text xml:space="preserve" text-anchor="middle" x="427.45" y="-25.94" font-family="Times,serif" font-size="14.00">qd</text>
</g>
<!-- q0&#45;&gt;qd -->
<g id="edge4" class="edge">
<title>q0-&gt;qd</title>
<path fill="none" stroke="black" d="M80.79,-26.87C98.36,-19.5 125.72,-9.26 150.66,-5.14 239.11,9.46 345.03,-10.48 396.04,-22.38"/>
<polygon fill="black" stroke="black" points="394.92,-25.71 405.46,-24.64 396.55,-18.9 394.92,-25.71"/>
<text xml:space="preserve" text-anchor="middle" x="233.37" y="-5.32" font-family="Times,serif" font-size="14.00">OTHER</text>
</g>
<!-- q2&#45;&gt;q2 -->
<g id="edge7" class="edge">
<title>q2-&gt;q2</title>
<path fill="none" stroke="black" d="M287.38,-111.11C285.72,-122.07 289.73,-131.84 299.4,-131.84 305.44,-131.84 309.27,-128.02 310.89,-122.48"/>
<polygon fill="black" stroke="black" points="314.38,-122.77 311.34,-112.62 307.39,-122.45 314.38,-122.77"/>
<text xml:space="preserve" text-anchor="middle" x="299.4" y="-136.04" font-family="Times,serif" font-size="14.00">DIGIT</text>
</g>
<!-- q2&#45;&gt;qd -->
<g id="edge8" class="edge">
<title>q2-&gt;qd</title>
<path fill="none" stroke="black" d="M322.35,-78.87C343.42,-69.01 375.34,-54.07 398.27,-43.33"/>
<polygon fill="black" stroke="black" points="399.47,-46.64 407.04,-39.23 396.5,-40.3 399.47,-46.64"/>
<text xml:space="preserve" text-anchor="middle" x="365.42" y="-72.58" font-family="Times,serif" font-size="14.00">OTHER</text>
</g>
<!-- q1&#45;&gt;q2 -->
<g id="edge5" class="edge">
<title>q1-&gt;q2</title>
<path fill="none" stroke="black" d="M191.54,-40.57C208.93,-45.76 235.06,-54.29 256.7,-64.34 260.52,-66.12 264.43,-68.14 268.26,-70.25"/>
<polygon fill="black" stroke="black" points="266.35,-73.19 276.76,-75.17 269.85,-67.13 266.35,-73.19"/>
<text xml:space="preserve" text-anchor="middle" x="233.37" y="-68.54" font-family="Times,serif" font-size="14.00">DIGIT</text>
</g>
<!-- q1&#45;&gt;qd -->
<g id="edge6" class="edge">
<title>q1-&gt;qd</title>
<path fill="none" stroke="black" d="M192.29,-34.75C236.36,-33.88 342.31,-31.8 395.25,-30.76"/>
<polygon fill="black" stroke="black" points="395.16,-34.26 405.09,-30.56 395.02,-27.26 395.16,-34.26"/>
<text xml:space="preserve" text-anchor="middle" x="299.4" y="-37.26" font-family="Times,serif" font-size="14.00">OTHER</text>
</g>
<!-- qd&#45;&gt;qd -->
<g id="edge9" class="edge">
<title>qd-&gt;qd</title>
<path fill="none" stroke="black" d="M416.54,-48.05C414.12,-58.76 417.76,-68.84 427.45,-68.84 433.5,-68.84 437.2,-64.9 438.52,-59.34"/>
<polygon fill="black" stroke="black" points="442.02,-59.51 438.37,-49.57 435.02,-59.62 442.02,-59.51"/>
<text xml:space="preserve" text-anchor="middle" x="427.45" y="-73.04" font-family="Times,serif" font-size="14.00">ANY</text>
</g>
</g>
</svg>