<svg xmlns="http://www.w3.org/2000/svg" xmlns:xlink="http://www.w3.org/1999/xlink" width="221pt" height="57pt" viewBox="0.00 0.00 221.00 57.00">
<g id="graph0" class="graph" transform="scale(1 1) rotate(0) translate(4 53.39)">
<title>PunctNFA</title>
<polygon fill="white" stroke="none" points="-4,4 -4,-53.39 217.27,-53.39 217.27,4 -4,4"/>
<!-- start -->
<g id="node1" class="node">
<title>start</title>
<ellipse fill="black" stroke="black" cx="1.8" cy="-24.69" rx="1.8" ry="1.8"/>
</g>
<!-- q0 -->
<g id="node2" class="node">
<title>q0</title>
<ellipse fill="none" stroke="black" cx="61.29" cy="-24.69" rx="20.69" ry="20.69"/>
<text xml:space="preserve" text-anchor="middle" x="61.29" y="-20.49" font-family="Times,serif" font-size="14.00">q0</text>
</g>
<!-- start&#45;&gt;q0 -->
<g id="edge1" class="edge">
<title>start-&gt;q0</title>
<path fill="none" stroke="black" d="M3.8,-24.69C7.06,-24.69 17.87,-24.69 29.17,-24.69"/>
<polygon fill="black" stroke="black" points="28.86,-28.19 38.86,-24.69 28.86,-21.19 28.86,-28.19"/>
</g>
<!-- q1 -->
<g id="node3" class="node">
<title>q1</title>
<ellipse fill="none" stroke="black" cx="188.58" cy="-24.69" rx="20.69" ry="20.69"/>
<ellipse fill="none" stroke="black" cx="188.58" cy="-24.69" rx="24.69" ry="24.69"/>
<text xml:space="preserve" text-anchor="middle" x="188.58" y="-20.49" font-family="Times,serif" font-size="14.00">q1</text>
</g>
<!-- q0&#45;&gt;q1 -->
<g id="edge2" class="edge">
<title>q0-&gt;q1</title>
<path fill="none" stroke="black" d="M82.42,-24.69C101.18,-24.69 129.58,-24.69 152.14,-24.69"/>
<polygon fill="black" stroke="black" points="152.13,-28.19 162.13,-24.69 152.13,-21.19 152.13,-28.19"/>
<text xml:space="preserve" text-anchor="middle" x="122.94" y="-28.89" font-family="Times,serif" font-size="14.00">PUNCT</text>
</g>
</g>
</svg>