<svg xmlns="http://www.w3.org/2000/svg" xmlns:xlink="http://www.w3.org/1999/xlink" width="332pt" height="92pt" viewBox="0.00 0.00 332.00 92.00">
<g id="graph0" class="graph" transform="scale(1 1) rotate(0) translate(4 88.19)">
<title>SLC_NFA</title>
<polygon fill="white" stroke="none" points="-4,4 -4,-88.19 327.52,-88.19 327.52,4 -4,4"/>
<!-- start -->
<g id="node1" class="node">
<title>start</title>
<ellipse fill="black" stroke="black" cx="1.8" cy="-24.69" rx="1.8" ry="1.8"/>
</g>
<!-- q0 -->
<g id="node2" class="node">
<title>q0</title>
<ellipse fill="none" stroke="black" cx="61.29" cy="-24.69" rx="20.69" ry="20.69"/>
<text xml:space="preserve" text-anchor="middle" x="61.29" y="-20.49" font-family="Times,serif" font-size="14.00">q0</text>
</g>
<!-- start&#45;&gt;q0 -->
<g id="edge1" class="edge">
<title>start-&gt;q0</title>
<path fill="none" stroke="black" d="M3.8,-24.69C7.06,-24.69 17.87,-24.69 29.17,-24.69"/>
<polygon fill="black" stroke="black" points="28.86,-28.19 38.86,-24.69 28.86,-21.19 28.86,-28.19"/>
</g>
<!-- q1 -->
<g id="node4" class="node">
<title>q1</title>
<ellipse fill="none" stroke="black" cx="176.8" cy="-24.69" rx="20.69" ry="20.69"/>
<text xml:space="preserve" text-anchor="middle" x="176.8" y="-20.49" font-family="Times,serif" font-size="14.00">q1</text>
</g>
<!-- q0&#45;&gt;q1 -->
<g id="edge2" class="edge">
<title>q0-&gt;q1</title>
<path fill="none" stroke="black" d="M82.32,-24.69C99.59,-24.69 124.79,-24.69 144.68,-24.69"/>
<polygon fill="black" stroke="black" points="144.45,-28.19 154.45,-24.69 144.45,-21.19 144.45,-28.19"/>
<text xml:space="preserve" text-anchor="middle" x="119.05" y="-28.89" font-family="Times,serif" font-size="14.00">HASH</text>
</g>
<!-- q2 -->
<g id="node3" class="node">
<title>q2</title>
<ellipse fill="none" stroke="black" cx="296.3" cy="-24.69" rx="20.69" ry="20.69"/>
<ellipse fill="none" stroke="black" cx="296.3" cy="-24.69" rx="24.69" ry="24.69"/>
<text xml:space="preserve" text-anchor="middle" x="296.3" y="-20.49" font-family="Times,serif" font-size="14.00">q2</text>
</g>
<!-- q2&#45;&gt;q2 -->
<g id="edge4" class="edge">
<title>q2-&gt;q2</title>
<path fill="none" stroke="black" d="M285.01,-47.1C283.61,-57.87 287.38,-67.39 296.3,-67.39 301.88,-67.39 305.44,-63.67 306.99,-58.25"/>
<polygon fill="black" stroke="black" points="310.47,-58.78 307.52,-48.61 303.48,-58.4 310.47,-58.78"/>
<text xml:space="preserve" text-anchor="middle" x="296.3" y="-71.59" font-family="Times,serif" font-size="14.00">NOT_NL</text>
</g>
<!-- q1&#45;&gt;q2 -->
<g id="edge3" class="edge">
<title>q1-&gt;q2</title>
<path fill="none" stroke="black" d="M197.73,-24.69C214.7,-24.69 239.49,-24.69 259.83,-24.69"/>
<polygon fill="black" stroke="black" points="259.69,-28.19 269.69,-24.69 259.69,-21.19 259.69,-28.19"/>
<text xml:space="preserve" text-anchor="middle" x="234.55" y="-28.89" font-family="Times,serif" font-size="14.00">HASH</text>
</g>
</g>
</svg>